<svg xmlns="http://www.w3.org/2000/svg" xmlns:xlink="http://www.w3.org/1999/xlink" width="600" height="400" viewBox="0 0 2400 1600">
<defs>
  <clipPath id="clip810">
    <rect x="0" y="0" width="2400" height="1600"></rect>
  </clipPath>
</defs>
<path clip-path="url(#clip810)" d="M0 1600 L2400 1600 L2400 0 L0 0  Z" fill="#ffffff" fill-rule="evenodd" fill-opacity="1"></path>
<defs>
  <clipPath id="clip811">
    <rect x="480" y="0" width="1681" height="1600"></rect>
  </clipPath>
</defs>
<path clip-path="url(#clip810)" d="M223.95 1423.18 L2352.76 1423.18 L2352.76 183.952 L223.95 183.952  Z" fill="#ffffff" fill-rule="evenodd" fill-opacity="1"></path>
<defs>
  <clipPath id="clip812">
    <rect x="223" y="183" width="2130" height="1240"></rect>
  </clipPath>
</defs>
<polyline clip-path="url(#clip812)" style="stroke:#000000; stroke-linecap:round; stroke-linejoin:round; stroke-width:2; stroke-opacity:0.1; fill:none" points="281.056,1423.18 281.056,183.952 "></polyline>
<polyline clip-path="url(#clip812)" style="stroke:#000000; stroke-linecap:round; stroke-linejoin:round; stroke-width:2; stroke-opacity:0.1; fill:none" points="595.345,1423.18 595.345,183.952 "></polyline>
<polyline clip-path="url(#clip812)" style="stroke:#000000; stroke-linecap:round; stroke-linejoin:round; stroke-width:2; stroke-opacity:0.1; fill:none" points="909.635,1423.18 909.635,183.952 "></polyline>
<polyline clip-path="url(#clip812)" style="stroke:#000000; stroke-linecap:round; stroke-linejoin:round; stroke-width:2; stroke-opacity:0.1; fill:none" points="1223.92,1423.18 1223.92,183.952 "></polyline>
<polyline clip-path="url(#clip812)" style="stroke:#000000; stroke-linecap:round; stroke-linejoin:round; stroke-width:2; stroke-opacity:0.1; fill:none" points="1538.21,1423.18 1538.21,183.952 "></polyline>
<polyline clip-path="url(#clip812)" style="stroke:#000000; stroke-linecap:round; stroke-linejoin:round; stroke-width:2; stroke-opacity:0.1; fill:none" points="1852.5,1423.18 1852.5,183.952 "></polyline>
<polyline clip-path="url(#clip812)" style="stroke:#000000; stroke-linecap:round; stroke-linejoin:round; stroke-width:2; stroke-opacity:0.1; fill:none" points="2166.79,1423.18 2166.79,183.952 "></polyline>
<polyline clip-path="url(#clip812)" style="stroke:#000000; stroke-linecap:round; stroke-linejoin:round; stroke-width:2; stroke-opacity:0.1; fill:none" points="223.95,1304.68 2352.76,1304.68 "></polyline>
<polyline clip-path="url(#clip812)" style="stroke:#000000; stroke-linecap:round; stroke-linejoin:round; stroke-width:2; stroke-opacity:0.1; fill:none" points="223.95,1104.53 2352.76,1104.53 "></polyline>
<polyline clip-path="url(#clip812)" style="stroke:#000000; stroke-linecap:round; stroke-linejoin:round; stroke-width:2; stroke-opacity:0.1; fill:none" points="223.95,904.381 2352.76,904.381 "></polyline>
<polyline clip-path="url(#clip812)" style="stroke:#000000; stroke-linecap:round; stroke-linejoin:round; stroke-width:2; stroke-opacity:0.1; fill:none" points="223.95,704.231 2352.76,704.231 "></polyline>
<polyline clip-path="url(#clip812)" style="stroke:#000000; stroke-linecap:round; stroke-linejoin:round; stroke-width:2; stroke-opacity:0.1; fill:none" points="223.95,504.081 2352.76,504.081 "></polyline>
<polyline clip-path="url(#clip812)" style="stroke:#000000; stroke-linecap:round; stroke-linejoin:round; stroke-width:2; stroke-opacity:0.1; fill:none" points="223.95,303.931 2352.76,303.931 "></polyline>
<polyline clip-path="url(#clip810)" style="stroke:#000000; stroke-linecap:round; stroke-linejoin:round; stroke-width:4; stroke-opacity:1; fill:none" points="223.95,1423.18 2352.76,1423.18 "></polyline>
<polyline clip-path="url(#clip810)" style="stroke:#000000; stroke-linecap:round; stroke-linejoin:round; stroke-width:4; stroke-opacity:1; fill:none" points="281.056,1423.18 281.056,1404.28 "></polyline>
<polyline clip-path="url(#clip810)" style="stroke:#000000; stroke-linecap:round; stroke-linejoin:round; stroke-width:4; stroke-opacity:1; fill:none" points="595.345,1423.18 595.345,1404.28 "></polyline>
<polyline clip-path="url(#clip810)" style="stroke:#000000; stroke-linecap:round; stroke-linejoin:round; stroke-width:4; stroke-opacity:1; fill:none" points="909.635,1423.18 909.635,1404.28 "></polyline>
<polyline clip-path="url(#clip810)" style="stroke:#000000; stroke-linecap:round; stroke-linejoin:round; stroke-width:4; stroke-opacity:1; fill:none" points="1223.92,1423.18 1223.92,1404.28 "></polyline>
<polyline clip-path="url(#clip810)" style="stroke:#000000; stroke-linecap:round; stroke-linejoin:round; stroke-width:4; stroke-opacity:1; fill:none" points="1538.21,1423.18 1538.21,1404.28 "></polyline>
<polyline clip-path="url(#clip810)" style="stroke:#000000; stroke-linecap:round; stroke-linejoin:round; stroke-width:4; stroke-opacity:1; fill:none" points="1852.5,1423.18 1852.5,1404.28 "></polyline>
<polyline clip-path="url(#clip810)" style="stroke:#000000; stroke-linecap:round; stroke-linejoin:round; stroke-width:4; stroke-opacity:1; fill:none" points="2166.79,1423.18 2166.79,1404.28 "></polyline>
<path clip-path="url(#clip810)" d="M281.056 1454.1 Q277.445 1454.1 275.617 1457.66 Q273.811 1461.2 273.811 1468.33 Q273.811 1475.44 275.617 1479.01 Q277.445 1482.55 281.056 1482.55 Q284.691 1482.55 286.496 1479.01 Q288.325 1475.44 288.325 1468.33 Q288.325 1461.2 286.496 1457.66 Q284.691 1454.1 281.056 1454.1 M281.056 1450.39 Q286.867 1450.39 289.922 1455 Q293.001 1459.58 293.001 1468.33 Q293.001 1477.06 289.922 1481.67 Q286.867 1486.25 281.056 1486.25 Q275.246 1486.25 272.168 1481.67 Q269.112 1477.06 269.112 1468.33 Q269.112 1459.58 272.168 1455 Q275.246 1450.39 281.056 1450.39 Z" fill="#000000" fill-rule="nonzero" fill-opacity="1"></path><path clip-path="url(#clip810)" d="M554.952 1481.64 L562.591 1481.64 L562.591 1455.28 L554.281 1456.95 L554.281 1452.69 L562.545 1451.02 L567.221 1451.02 L567.221 1481.64 L574.859 1481.64 L574.859 1485.58 L554.952 1485.58 L554.952 1481.64 Z" fill="#000000" fill-rule="nonzero" fill-opacity="1"></path><path clip-path="url(#clip810)" d="M594.304 1454.1 Q590.693 1454.1 588.864 1457.66 Q587.058 1461.2 587.058 1468.33 Q587.058 1475.44 588.864 1479.01 Q590.693 1482.55 594.304 1482.55 Q597.938 1482.55 599.744 1479.01 Q601.572 1475.44 601.572 1468.33 Q601.572 1461.2 599.744 1457.66 Q597.938 1454.1 594.304 1454.1 M594.304 1450.39 Q600.114 1450.39 603.169 1455 Q606.248 1459.58 606.248 1468.33 Q606.248 1477.06 603.169 1481.67 Q600.114 1486.25 594.304 1486.25 Q588.494 1486.25 585.415 1481.67 Q582.359 1477.06 582.359 1468.33 Q582.359 1459.58 585.415 1455 Q588.494 1450.39 594.304 1450.39 Z" fill="#000000" fill-rule="nonzero" fill-opacity="1"></path><path clip-path="url(#clip810)" d="M624.466 1454.1 Q620.855 1454.1 619.026 1457.66 Q617.22 1461.2 617.22 1468.33 Q617.22 1475.44 619.026 1479.01 Q620.855 1482.55 624.466 1482.55 Q628.1 1482.55 629.905 1479.01 Q631.734 1475.44 631.734 1468.33 Q631.734 1461.2 629.905 1457.66 Q628.1 1454.1 624.466 1454.1 M624.466 1450.39 Q630.276 1450.39 633.331 1455 Q636.41 1459.58 636.41 1468.33 Q636.41 1477.06 633.331 1481.67 Q630.276 1486.25 624.466 1486.25 Q618.656 1486.25 615.577 1481.67 Q612.521 1477.06 612.521 1468.33 Q612.521 1459.58 615.577 1455 Q618.656 1450.39 624.466 1450.39 Z" fill="#000000" fill-rule="nonzero" fill-opacity="1"></path><path clip-path="url(#clip810)" d="M873.327 1481.64 L889.646 1481.64 L889.646 1485.58 L867.702 1485.58 L867.702 1481.64 Q870.364 1478.89 874.947 1474.26 Q879.554 1469.61 880.734 1468.27 Q882.98 1465.74 883.859 1464.01 Q884.762 1462.25 884.762 1460.56 Q884.762 1457.8 882.818 1456.07 Q880.896 1454.33 877.794 1454.33 Q875.595 1454.33 873.142 1455.09 Q870.711 1455.86 867.933 1457.41 L867.933 1452.69 Q870.757 1451.55 873.211 1450.97 Q875.665 1450.39 877.702 1450.39 Q883.072 1450.39 886.267 1453.08 Q889.461 1455.77 889.461 1460.26 Q889.461 1462.39 888.651 1464.31 Q887.864 1466.2 885.757 1468.8 Q885.179 1469.47 882.077 1472.69 Q878.975 1475.88 873.327 1481.64 Z" fill="#000000" fill-rule="nonzero" fill-opacity="1"></path><path clip-path="url(#clip810)" d="M909.461 1454.1 Q905.85 1454.1 904.021 1457.66 Q902.216 1461.2 902.216 1468.33 Q902.216 1475.44 904.021 1479.01 Q905.85 1482.55 909.461 1482.55 Q913.095 1482.55 914.901 1479.01 Q916.729 1475.44 916.729 1468.33 Q916.729 1461.2 914.901 1457.66 Q913.095 1454.1 909.461 1454.1 M909.461 1450.39 Q915.271 1450.39 918.327 1455 Q921.405 1459.58 921.405 1468.33 Q921.405 1477.06 918.327 1481.67 Q915.271 1486.25 909.461 1486.25 Q903.651 1486.25 900.572 1481.67 Q897.517 1477.06 897.517 1468.33 Q897.517 1459.58 900.572 1455 Q903.651 1450.39 909.461 1450.39 Z" fill="#000000" fill-rule="nonzero" fill-opacity="1"></path><path clip-path="url(#clip810)" d="M939.623 1454.1 Q936.012 1454.1 934.183 1457.66 Q932.378 1461.2 932.378 1468.33 Q932.378 1475.44 934.183 1479.01 Q936.012 1482.55 939.623 1482.55 Q943.257 1482.55 945.063 1479.01 Q946.891 1475.44 946.891 1468.33 Q946.891 1461.2 945.063 1457.66 Q943.257 1454.1 939.623 1454.1 M939.623 1450.39 Q945.433 1450.39 948.489 1455 Q951.567 1459.58 951.567 1468.33 Q951.567 1477.06 948.489 1481.67 Q945.433 1486.25 939.623 1486.25 Q933.813 1486.25 930.734 1481.67 Q927.678 1477.06 927.678 1468.33 Q927.678 1459.58 930.734 1455 Q933.813 1450.39 939.623 1450.39 Z" fill="#000000" fill-rule="nonzero" fill-opacity="1"></path><path clip-path="url(#clip810)" d="M1197.69 1466.95 Q1201.04 1467.66 1202.92 1469.93 Q1204.81 1472.2 1204.81 1475.53 Q1204.81 1480.65 1201.3 1483.45 Q1197.78 1486.25 1191.3 1486.25 Q1189.12 1486.25 1186.81 1485.81 Q1184.51 1485.39 1182.06 1484.54 L1182.06 1480.02 Q1184 1481.16 1186.32 1481.74 Q1188.63 1482.32 1191.16 1482.32 Q1195.56 1482.32 1197.85 1480.58 Q1200.16 1478.84 1200.16 1475.53 Q1200.16 1472.48 1198.01 1470.77 Q1195.88 1469.03 1192.06 1469.03 L1188.03 1469.03 L1188.03 1465.19 L1192.25 1465.19 Q1195.69 1465.19 1197.52 1463.82 Q1199.35 1462.43 1199.35 1459.84 Q1199.35 1457.18 1197.45 1455.77 Q1195.58 1454.33 1192.06 1454.33 Q1190.14 1454.33 1187.94 1454.75 Q1185.74 1455.16 1183.1 1456.04 L1183.1 1451.88 Q1185.76 1451.14 1188.08 1450.77 Q1190.42 1450.39 1192.48 1450.39 Q1197.8 1450.39 1200.9 1452.83 Q1204 1455.23 1204 1459.35 Q1204 1462.22 1202.36 1464.21 Q1200.72 1466.18 1197.69 1466.95 Z" fill="#000000" fill-rule="nonzero" fill-opacity="1"></path><path clip-path="url(#clip810)" d="M1223.68 1454.1 Q1220.07 1454.1 1218.24 1457.66 Q1216.44 1461.2 1216.44 1468.33 Q1216.44 1475.44 1218.24 1479.01 Q1220.07 1482.55 1223.68 1482.55 Q1227.31 1482.55 1229.12 1479.01 Q1230.95 1475.44 1230.95 1468.33 Q1230.95 1461.2 1229.12 1457.66 Q1227.31 1454.1 1223.68 1454.1 M1223.68 1450.39 Q1229.49 1450.39 1232.55 1455 Q1235.63 1459.58 1235.63 1468.33 Q1235.63 1477.06 1232.55 1481.67 Q1229.49 1486.25 1223.68 1486.25 Q1217.87 1486.25 1214.79 1481.67 Q1211.74 1477.06 1211.74 1468.33 Q1211.74 1459.58 1214.79 1455 Q1217.87 1450.39 1223.68 1450.39 Z" fill="#000000" fill-rule="nonzero" fill-opacity="1"></path><path clip-path="url(#clip810)" d="M1253.84 1454.1 Q1250.23 1454.1 1248.4 1457.66 Q1246.6 1461.2 1246.6 1468.33 Q1246.6 1475.44 1248.4 1479.01 Q1250.23 1482.55 1253.84 1482.55 Q1257.48 1482.55 1259.28 1479.01 Q1261.11 1475.44 1261.11 1468.33 Q1261.11 1461.2 1259.28 1457.66 Q1257.48 1454.1 1253.84 1454.1 M1253.84 1450.39 Q1259.65 1450.39 1262.71 1455 Q1265.79 1459.58 1265.79 1468.33 Q1265.79 1477.06 1262.71 1481.67 Q1259.65 1486.25 1253.84 1486.25 Q1248.03 1486.25 1244.95 1481.67 Q1241.9 1477.06 1241.9 1468.33 Q1241.9 1459.58 1244.95 1455 Q1248.03 1450.39 1253.84 1450.39 Z" fill="#000000" fill-rule="nonzero" fill-opacity="1"></path><path clip-path="url(#clip810)" d="M1511.3 1455.09 L1499.5 1473.54 L1511.3 1473.54 L1511.3 1455.09 M1510.08 1451.02 L1515.96 1451.02 L1515.96 1473.54 L1520.89 1473.54 L1520.89 1477.43 L1515.96 1477.43 L1515.96 1485.58 L1511.3 1485.58 L1511.3 1477.43 L1495.7 1477.43 L1495.7 1472.92 L1510.08 1451.02 Z" fill="#000000" fill-rule="nonzero" fill-opacity="1"></path><path clip-path="url(#clip810)" d="M1538.62 1454.1 Q1535.01 1454.1 1533.18 1457.66 Q1531.37 1461.2 1531.37 1468.33 Q1531.37 1475.44 1533.18 1479.01 Q1535.01 1482.55 1538.62 1482.55 Q1542.25 1482.55 1544.06 1479.01 Q1545.89 1475.44 1545.89 1468.33 Q1545.89 1461.2 1544.06 1457.66 Q1542.25 1454.1 1538.62 1454.1 M1538.62 1450.39 Q1544.43 1450.39 1547.48 1455 Q1550.56 1459.58 1550.56 1468.33 Q1550.56 1477.06 1547.48 1481.67 Q1544.43 1486.25 1538.62 1486.25 Q1532.81 1486.25 1529.73 1481.67 Q1526.67 1477.06 1526.67 1468.33 Q1526.67 1459.58 1529.73 1455 Q1532.81 1450.39 1538.62 1450.39 Z" fill="#000000" fill-rule="nonzero" fill-opacity="1"></path><path clip-path="url(#clip810)" d="M1568.78 1454.1 Q1565.17 1454.1 1563.34 1457.66 Q1561.53 1461.2 1561.53 1468.33 Q1561.53 1475.44 1563.34 1479.01 Q1565.17 1482.55 1568.78 1482.55 Q1572.41 1482.55 1574.22 1479.01 Q1576.05 1475.44 1576.05 1468.33 Q1576.05 1461.2 1574.22 1457.66 Q1572.41 1454.1 1568.78 1454.1 M1568.78 1450.39 Q1574.59 1450.39 1577.65 1455 Q1580.72 1459.58 1580.72 1468.33 Q1580.72 1477.06 1577.65 1481.67 Q1574.59 1486.25 1568.78 1486.25 Q1562.97 1486.25 1559.89 1481.67 Q1556.84 1477.06 1556.84 1468.33 Q1556.84 1459.58 1559.89 1455 Q1562.97 1450.39 1568.78 1450.39 Z" fill="#000000" fill-rule="nonzero" fill-opacity="1"></path><path clip-path="url(#clip810)" d="M1812.12 1451.02 L1830.48 1451.02 L1830.48 1454.96 L1816.4 1454.96 L1816.4 1463.43 Q1817.42 1463.08 1818.44 1462.92 Q1819.46 1462.73 1820.48 1462.73 Q1826.26 1462.73 1829.64 1465.9 Q1833.02 1469.08 1833.02 1474.49 Q1833.02 1480.07 1829.55 1483.17 Q1826.08 1486.25 1819.76 1486.25 Q1817.58 1486.25 1815.31 1485.88 Q1813.07 1485.51 1810.66 1484.77 L1810.66 1480.07 Q1812.75 1481.2 1814.97 1481.76 Q1817.19 1482.32 1819.67 1482.32 Q1823.67 1482.32 1826.01 1480.21 Q1828.35 1478.1 1828.35 1474.49 Q1828.35 1470.88 1826.01 1468.77 Q1823.67 1466.67 1819.67 1466.67 Q1817.79 1466.67 1815.92 1467.08 Q1814.06 1467.5 1812.12 1468.38 L1812.12 1451.02 Z" fill="#000000" fill-rule="nonzero" fill-opacity="1"></path><path clip-path="url(#clip810)" d="M1852.24 1454.1 Q1848.62 1454.1 1846.8 1457.66 Q1844.99 1461.2 1844.99 1468.33 Q1844.99 1475.44 1846.8 1479.01 Q1848.62 1482.55 1852.24 1482.55 Q1855.87 1482.55 1857.68 1479.01 Q1859.5 1475.44 1859.5 1468.33 Q1859.5 1461.2 1857.68 1457.66 Q1855.87 1454.1 1852.24 1454.1 M1852.24 1450.39 Q1858.05 1450.39 1861.1 1455 Q1864.18 1459.58 1864.18 1468.33 Q1864.18 1477.06 1861.1 1481.67 Q1858.05 1486.25 1852.24 1486.25 Q1846.43 1486.25 1843.35 1481.67 Q1840.29 1477.06 1840.29 1468.33 Q1840.29 1459.58 1843.35 1455 Q1846.43 1450.39 1852.24 1450.39 Z" fill="#000000" fill-rule="nonzero" fill-opacity="1"></path><path clip-path="url(#clip810)" d="M1882.4 1454.1 Q1878.79 1454.1 1876.96 1457.66 Q1875.15 1461.2 1875.15 1468.33 Q1875.15 1475.44 1876.96 1479.01 Q1878.79 1482.55 1882.4 1482.55 Q1886.03 1482.55 1887.84 1479.01 Q1889.67 1475.44 1889.67 1468.33 Q1889.67 1461.2 1887.84 1457.66 Q1886.03 1454.1 1882.4 1454.1 M1882.4 1450.39 Q1888.21 1450.39 1891.26 1455 Q1894.34 1459.58 1894.34 1468.33 Q1894.34 1477.06 1891.26 1481.67 Q1888.21 1486.25 1882.4 1486.25 Q1876.59 1486.25 1873.51 1481.67 Q1870.45 1477.06 1870.45 1468.33 Q1870.45 1459.58 1873.51 1455 Q1876.59 1450.39 1882.4 1450.39 Z" fill="#000000" fill-rule="nonzero" fill-opacity="1"></path><path clip-path="url(#clip810)" d="M2137.12 1466.44 Q2133.97 1466.44 2132.12 1468.59 Q2130.29 1470.74 2130.29 1474.49 Q2130.29 1478.22 2132.12 1480.39 Q2133.97 1482.55 2137.12 1482.55 Q2140.26 1482.55 2142.09 1480.39 Q2143.94 1478.22 2143.94 1474.49 Q2143.94 1470.74 2142.09 1468.59 Q2140.26 1466.44 2137.12 1466.44 M2146.4 1451.78 L2146.4 1456.04 Q2144.64 1455.21 2142.83 1454.77 Q2141.05 1454.33 2139.29 1454.33 Q2134.66 1454.33 2132.21 1457.45 Q2129.78 1460.58 2129.43 1466.9 Q2130.8 1464.89 2132.86 1463.82 Q2134.92 1462.73 2137.39 1462.73 Q2142.6 1462.73 2145.61 1465.9 Q2148.64 1469.05 2148.64 1474.49 Q2148.64 1479.82 2145.49 1483.03 Q2142.35 1486.25 2137.12 1486.25 Q2131.12 1486.25 2127.95 1481.67 Q2124.78 1477.06 2124.78 1468.33 Q2124.78 1460.14 2128.67 1455.28 Q2132.56 1450.39 2139.11 1450.39 Q2140.87 1450.39 2142.65 1450.74 Q2144.45 1451.09 2146.4 1451.78 Z" fill="#000000" fill-rule="nonzero" fill-opacity="1"></path><path clip-path="url(#clip810)" d="M2166.7 1454.1 Q2163.09 1454.1 2161.26 1457.66 Q2159.45 1461.2 2159.45 1468.33 Q2159.45 1475.44 2161.26 1479.01 Q2163.09 1482.55 2166.7 1482.55 Q2170.33 1482.55 2172.14 1479.01 Q2173.97 1475.44 2173.97 1468.33 Q2173.97 1461.2 2172.14 1457.66 Q2170.33 1454.1 2166.7 1454.1 M2166.7 1450.39 Q2172.51 1450.39 2175.56 1455 Q2178.64 1459.58 2178.64 1468.33 Q2178.64 1477.06 2175.56 1481.67 Q2172.51 1486.25 2166.7 1486.25 Q2160.89 1486.25 2157.81 1481.67 Q2154.75 1477.06 2154.75 1468.33 Q2154.75 1459.58 2157.81 1455 Q2160.89 1450.39 2166.7 1450.39 Z" fill="#000000" fill-rule="nonzero" fill-opacity="1"></path><path clip-path="url(#clip810)" d="M2196.86 1454.1 Q2193.25 1454.1 2191.42 1457.66 Q2189.61 1461.2 2189.61 1468.33 Q2189.61 1475.44 2191.42 1479.01 Q2193.25 1482.55 2196.86 1482.55 Q2200.49 1482.55 2202.3 1479.01 Q2204.13 1475.44 2204.13 1468.33 Q2204.13 1461.2 2202.3 1457.66 Q2200.49 1454.1 2196.86 1454.1 M2196.86 1450.39 Q2202.67 1450.39 2205.73 1455 Q2208.8 1459.58 2208.8 1468.33 Q2208.8 1477.06 2205.73 1481.67 Q2202.67 1486.25 2196.86 1486.25 Q2191.05 1486.25 2187.97 1481.67 Q2184.92 1477.06 2184.92 1468.33 Q2184.92 1459.58 2187.97 1455 Q2191.05 1450.39 2196.86 1450.39 Z" fill="#000000" fill-rule="nonzero" fill-opacity="1"></path><path clip-path="url(#clip810)" d="M1304.52 1544.17 Q1304.52 1544.42 1304.23 1545.42 Q1303.94 1546.42 1303.23 1547.97 Q1302.55 1549.51 1301.62 1550.93 Q1300.68 1552.31 1299.14 1553.34 Q1297.62 1554.34 1295.88 1554.34 Q1293.57 1554.34 1292.02 1552.8 Q1290.47 1551.25 1290.47 1548.93 Q1290.47 1547.64 1291.15 1545.87 Q1295.43 1534.44 1295.43 1530.51 Q1295.43 1525.91 1291.86 1525.91 Q1290.09 1525.91 1288.41 1526.58 Q1286.77 1527.23 1285.64 1528.13 Q1284.52 1529.03 1283.49 1530.29 Q1282.49 1531.51 1281.97 1532.35 Q1281.49 1533.15 1281.1 1533.96 L1280.26 1537.24 Q1280.07 1538.14 1279.14 1541.65 L1277.69 1547.61 Q1276.66 1552.06 1276.43 1552.47 Q1276.11 1553.38 1275.4 1553.86 Q1274.69 1554.34 1273.98 1554.34 Q1273.18 1554.34 1272.63 1553.86 Q1272.08 1553.38 1272.08 1552.54 Q1272.08 1552.41 1272.18 1551.93 Q1272.28 1551.44 1272.44 1550.77 Q1272.6 1550.09 1272.66 1549.71 L1276.5 1534.47 Q1277.21 1531.7 1277.37 1530.83 Q1277.56 1529.93 1277.56 1528.93 Q1277.56 1525.91 1275.5 1525.91 Q1273.82 1525.91 1272.73 1527.9 Q1271.63 1529.9 1270.7 1533.76 Q1270.41 1534.83 1270.22 1535.05 Q1270.06 1535.28 1269.57 1535.28 Q1268.77 1535.24 1268.77 1534.6 Q1268.77 1534.44 1269.02 1533.38 Q1269.28 1532.31 1269.77 1530.8 Q1270.28 1529.25 1270.76 1528.22 Q1271.18 1527.45 1271.41 1527.1 Q1271.67 1526.71 1272.28 1525.97 Q1272.92 1525.2 1273.76 1524.84 Q1274.63 1524.46 1275.69 1524.46 Q1278.07 1524.46 1279.81 1526 Q1281.55 1527.52 1281.78 1530.19 Q1286.06 1524.46 1292.05 1524.46 Q1295.59 1524.46 1297.62 1526.32 Q1299.65 1528.19 1299.65 1531.51 Q1299.65 1532.28 1299.49 1533.28 Q1299.36 1534.25 1299.04 1535.47 Q1298.75 1536.69 1298.49 1537.63 Q1298.24 1538.56 1297.72 1540.08 Q1297.21 1541.56 1296.98 1542.2 Q1296.75 1542.85 1296.21 1544.36 Q1295.69 1545.84 1295.63 1546 Q1294.44 1549 1294.44 1550.7 Q1294.44 1551.83 1294.79 1552.35 Q1295.18 1552.86 1296.01 1552.86 Q1298.27 1552.86 1299.94 1550.64 Q1301.65 1548.38 1302.74 1544.71 Q1303 1543.91 1303.13 1543.71 Q1303.29 1543.52 1303.74 1543.52 Q1304.52 1543.52 1304.52 1544.17 Z" fill="#000000" fill-rule="nonzero" fill-opacity="1"></path><polyline clip-path="url(#clip810)" style="stroke:#000000; stroke-linecap:round; stroke-linejoin:round; stroke-width:4; stroke-opacity:1; fill:none" points="223.95,1423.18 223.95,183.952 "></polyline>
<polyline clip-path="url(#clip810)" style="stroke:#000000; stroke-linecap:round; stroke-linejoin:round; stroke-width:4; stroke-opacity:1; fill:none" points="223.95,1304.68 242.848,1304.68 "></polyline>
<polyline clip-path="url(#clip810)" style="stroke:#000000; stroke-linecap:round; stroke-linejoin:round; stroke-width:4; stroke-opacity:1; fill:none" points="223.95,1104.53 242.848,1104.53 "></polyline>
<polyline clip-path="url(#clip810)" style="stroke:#000000; stroke-linecap:round; stroke-linejoin:round; stroke-width:4; stroke-opacity:1; fill:none" points="223.95,904.381 242.848,904.381 "></polyline>
<polyline clip-path="url(#clip810)" style="stroke:#000000; stroke-linecap:round; stroke-linejoin:round; stroke-width:4; stroke-opacity:1; fill:none" points="223.95,704.231 242.848,704.231 "></polyline>
<polyline clip-path="url(#clip810)" style="stroke:#000000; stroke-linecap:round; stroke-linejoin:round; stroke-width:4; stroke-opacity:1; fill:none" points="223.95,504.081 242.848,504.081 "></polyline>
<polyline clip-path="url(#clip810)" style="stroke:#000000; stroke-linecap:round; stroke-linejoin:round; stroke-width:4; stroke-opacity:1; fill:none" points="223.95,303.931 242.848,303.931 "></polyline>
<path clip-path="url(#clip810)" d="M130.288 1290.48 Q126.677 1290.48 124.849 1294.04 Q123.043 1297.59 123.043 1304.72 Q123.043 1311.82 124.849 1315.39 Q126.677 1318.93 130.288 1318.93 Q133.923 1318.93 135.728 1315.39 Q137.557 1311.82 137.557 1304.72 Q137.557 1297.59 135.728 1294.04 Q133.923 1290.48 130.288 1290.48 M130.288 1286.78 Q136.098 1286.78 139.154 1291.38 Q142.233 1295.97 142.233 1304.72 Q142.233 1313.44 139.154 1318.05 Q136.098 1322.63 130.288 1322.63 Q124.478 1322.63 121.399 1318.05 Q118.344 1313.44 118.344 1304.72 Q118.344 1295.97 121.399 1291.38 Q124.478 1286.78 130.288 1286.78 Z" fill="#000000" fill-rule="nonzero" fill-opacity="1"></path><path clip-path="url(#clip810)" d="M150.45 1316.08 L155.334 1316.08 L155.334 1321.96 L150.45 1321.96 L150.45 1316.08 Z" fill="#000000" fill-rule="nonzero" fill-opacity="1"></path><path clip-path="url(#clip810)" d="M178.367 1291.47 L166.561 1309.92 L178.367 1309.92 L178.367 1291.47 M177.14 1287.4 L183.019 1287.4 L183.019 1309.92 L187.95 1309.92 L187.95 1313.81 L183.019 1313.81 L183.019 1321.96 L178.367 1321.96 L178.367 1313.81 L162.765 1313.81 L162.765 1309.3 L177.14 1287.4 Z" fill="#000000" fill-rule="nonzero" fill-opacity="1"></path><path clip-path="url(#clip810)" d="M131.77 1090.33 Q128.159 1090.33 126.33 1093.89 Q124.524 1097.44 124.524 1104.57 Q124.524 1111.67 126.33 1115.24 Q128.159 1118.78 131.77 1118.78 Q135.404 1118.78 137.21 1115.24 Q139.038 1111.67 139.038 1104.57 Q139.038 1097.44 137.21 1093.89 Q135.404 1090.33 131.77 1090.33 M131.77 1086.63 Q137.58 1086.63 140.635 1091.23 Q143.714 1095.82 143.714 1104.57 Q143.714 1113.29 140.635 1117.9 Q137.58 1122.48 131.77 1122.48 Q125.96 1122.48 122.881 1117.9 Q119.825 1113.29 119.825 1104.57 Q119.825 1095.82 122.881 1091.23 Q125.96 1086.63 131.77 1086.63 Z" fill="#000000" fill-rule="nonzero" fill-opacity="1"></path><path clip-path="url(#clip810)" d="M151.932 1115.93 L156.816 1115.93 L156.816 1121.81 L151.932 1121.81 L151.932 1115.93 Z" fill="#000000" fill-rule="nonzero" fill-opacity="1"></path><path clip-path="url(#clip810)" d="M167.047 1087.25 L185.404 1087.25 L185.404 1091.19 L171.33 1091.19 L171.33 1099.66 Q172.348 1099.31 173.367 1099.15 Q174.385 1098.96 175.404 1098.96 Q181.191 1098.96 184.57 1102.13 Q187.95 1105.31 187.95 1110.72 Q187.95 1116.3 184.478 1119.4 Q181.006 1122.48 174.686 1122.48 Q172.51 1122.48 170.242 1122.11 Q167.996 1121.74 165.589 1121 L165.589 1116.3 Q167.672 1117.44 169.895 1117.99 Q172.117 1118.55 174.594 1118.55 Q178.598 1118.55 180.936 1116.44 Q183.274 1114.33 183.274 1110.72 Q183.274 1107.11 180.936 1105.01 Q178.598 1102.9 174.594 1102.9 Q172.719 1102.9 170.844 1103.32 Q168.992 1103.73 167.047 1104.61 L167.047 1087.25 Z" fill="#000000" fill-rule="nonzero" fill-opacity="1"></path><path clip-path="url(#clip810)" d="M130.612 890.179 Q127.001 890.179 125.173 893.744 Q123.367 897.286 123.367 904.415 Q123.367 911.522 125.173 915.087 Q127.001 918.628 130.612 918.628 Q134.247 918.628 136.052 915.087 Q137.881 911.522 137.881 904.415 Q137.881 897.286 136.052 893.744 Q134.247 890.179 130.612 890.179 M130.612 886.476 Q136.423 886.476 139.478 891.082 Q142.557 895.665 142.557 904.415 Q142.557 913.142 139.478 917.749 Q136.423 922.332 130.612 922.332 Q124.802 922.332 121.724 917.749 Q118.668 913.142 118.668 904.415 Q118.668 895.665 121.724 891.082 Q124.802 886.476 130.612 886.476 Z" fill="#000000" fill-rule="nonzero" fill-opacity="1"></path><path clip-path="url(#clip810)" d="M150.774 915.781 L155.659 915.781 L155.659 921.661 L150.774 921.661 L150.774 915.781 Z" fill="#000000" fill-rule="nonzero" fill-opacity="1"></path><path clip-path="url(#clip810)" d="M176.422 902.517 Q173.274 902.517 171.422 904.67 Q169.594 906.823 169.594 910.573 Q169.594 914.3 171.422 916.475 Q173.274 918.628 176.422 918.628 Q179.57 918.628 181.399 916.475 Q183.251 914.3 183.251 910.573 Q183.251 906.823 181.399 904.67 Q179.57 902.517 176.422 902.517 M185.705 887.864 L185.705 892.124 Q183.945 891.29 182.14 890.851 Q180.357 890.411 178.598 890.411 Q173.969 890.411 171.515 893.536 Q169.084 896.661 168.737 902.98 Q170.103 900.966 172.163 899.901 Q174.223 898.813 176.7 898.813 Q181.908 898.813 184.918 901.985 Q187.95 905.133 187.95 910.573 Q187.95 915.897 184.802 919.114 Q181.654 922.332 176.422 922.332 Q170.427 922.332 167.256 917.749 Q164.084 913.142 164.084 904.415 Q164.084 896.221 167.973 891.36 Q171.862 886.476 178.413 886.476 Q180.172 886.476 181.955 886.823 Q183.76 887.17 185.705 887.864 Z" fill="#000000" fill-rule="nonzero" fill-opacity="1"></path><path clip-path="url(#clip810)" d="M131.677 690.029 Q128.066 690.029 126.237 693.594 Q124.432 697.136 124.432 704.265 Q124.432 711.372 126.237 714.937 Q128.066 718.478 131.677 718.478 Q135.311 718.478 137.117 714.937 Q138.946 711.372 138.946 704.265 Q138.946 697.136 137.117 693.594 Q135.311 690.029 131.677 690.029 M131.677 686.326 Q137.487 686.326 140.543 690.932 Q143.622 695.515 143.622 704.265 Q143.622 712.992 140.543 717.599 Q137.487 722.182 131.677 722.182 Q125.867 722.182 122.788 717.599 Q119.733 712.992 119.733 704.265 Q119.733 695.515 122.788 690.932 Q125.867 686.326 131.677 686.326 Z" fill="#000000" fill-rule="nonzero" fill-opacity="1"></path><path clip-path="url(#clip810)" d="M151.839 715.631 L156.723 715.631 L156.723 721.511 L151.839 721.511 L151.839 715.631 Z" fill="#000000" fill-rule="nonzero" fill-opacity="1"></path><path clip-path="url(#clip810)" d="M165.728 686.951 L187.95 686.951 L187.95 688.941 L175.404 721.511 L170.52 721.511 L182.325 690.886 L165.728 690.886 L165.728 686.951 Z" fill="#000000" fill-rule="nonzero" fill-opacity="1"></path><path clip-path="url(#clip810)" d="M130.867 489.879 Q127.256 489.879 125.427 493.444 Q123.622 496.986 123.622 504.115 Q123.622 511.222 125.427 514.787 Q127.256 518.328 130.867 518.328 Q134.501 518.328 136.307 514.787 Q138.135 511.222 138.135 504.115 Q138.135 496.986 136.307 493.444 Q134.501 489.879 130.867 489.879 M130.867 486.176 Q136.677 486.176 139.733 490.782 Q142.811 495.365 142.811 504.115 Q142.811 512.842 139.733 517.449 Q136.677 522.032 130.867 522.032 Q125.057 522.032 121.978 517.449 Q118.923 512.842 118.923 504.115 Q118.923 495.365 121.978 490.782 Q125.057 486.176 130.867 486.176 Z" fill="#000000" fill-rule="nonzero" fill-opacity="1"></path><path clip-path="url(#clip810)" d="M151.029 515.481 L155.913 515.481 L155.913 521.361 L151.029 521.361 L151.029 515.481 Z" fill="#000000" fill-rule="nonzero" fill-opacity="1"></path><path clip-path="url(#clip810)" d="M176.098 504.949 Q172.765 504.949 170.844 506.731 Q168.945 508.514 168.945 511.639 Q168.945 514.764 170.844 516.546 Q172.765 518.328 176.098 518.328 Q179.432 518.328 181.353 516.546 Q183.274 514.74 183.274 511.639 Q183.274 508.514 181.353 506.731 Q179.455 504.949 176.098 504.949 M171.422 502.958 Q168.413 502.217 166.723 500.157 Q165.057 498.097 165.057 495.134 Q165.057 490.991 167.996 488.583 Q170.959 486.176 176.098 486.176 Q181.26 486.176 184.2 488.583 Q187.14 490.991 187.14 495.134 Q187.14 498.097 185.45 500.157 Q183.783 502.217 180.797 502.958 Q184.177 503.745 186.052 506.037 Q187.95 508.328 187.95 511.639 Q187.95 516.662 184.871 519.347 Q181.816 522.032 176.098 522.032 Q170.381 522.032 167.302 519.347 Q164.246 516.662 164.246 511.639 Q164.246 508.328 166.145 506.037 Q168.043 503.745 171.422 502.958 M169.709 495.574 Q169.709 498.259 171.376 499.764 Q173.066 501.268 176.098 501.268 Q179.107 501.268 180.797 499.764 Q182.51 498.259 182.51 495.574 Q182.51 492.889 180.797 491.384 Q179.107 489.879 176.098 489.879 Q173.066 489.879 171.376 491.384 Q169.709 492.889 169.709 495.574 Z" fill="#000000" fill-rule="nonzero" fill-opacity="1"></path><path clip-path="url(#clip810)" d="M130.96 289.729 Q127.348 289.729 125.52 293.294 Q123.714 296.836 123.714 303.966 Q123.714 311.072 125.52 314.637 Q127.348 318.178 130.96 318.178 Q134.594 318.178 136.399 314.637 Q138.228 311.072 138.228 303.966 Q138.228 296.836 136.399 293.294 Q134.594 289.729 130.96 289.729 M130.96 286.026 Q136.77 286.026 139.825 290.632 Q142.904 295.216 142.904 303.966 Q142.904 312.692 139.825 317.299 Q136.77 321.882 130.96 321.882 Q125.149 321.882 122.071 317.299 Q119.015 312.692 119.015 303.966 Q119.015 295.216 122.071 290.632 Q125.149 286.026 130.96 286.026 Z" fill="#000000" fill-rule="nonzero" fill-opacity="1"></path><path clip-path="url(#clip810)" d="M151.122 315.331 L156.006 315.331 L156.006 321.211 L151.122 321.211 L151.122 315.331 Z" fill="#000000" fill-rule="nonzero" fill-opacity="1"></path><path clip-path="url(#clip810)" d="M166.33 320.493 L166.33 316.234 Q168.089 317.067 169.895 317.507 Q171.7 317.947 173.436 317.947 Q178.066 317.947 180.496 314.845 Q182.95 311.72 183.297 305.378 Q181.955 307.368 179.895 308.433 Q177.834 309.498 175.334 309.498 Q170.149 309.498 167.117 306.373 Q164.108 303.225 164.108 297.785 Q164.108 292.461 167.256 289.243 Q170.404 286.026 175.635 286.026 Q181.631 286.026 184.779 290.632 Q187.95 295.216 187.95 303.966 Q187.95 312.137 184.061 317.021 Q180.195 321.882 173.645 321.882 Q171.885 321.882 170.08 321.535 Q168.274 321.188 166.33 320.493 M175.635 305.841 Q178.783 305.841 180.612 303.688 Q182.464 301.535 182.464 297.785 Q182.464 294.058 180.612 291.905 Q178.783 289.729 175.635 289.729 Q172.487 289.729 170.635 291.905 Q168.807 294.058 168.807 297.785 Q168.807 301.535 170.635 303.688 Q172.487 305.841 175.635 305.841 Z" fill="#000000" fill-rule="nonzero" fill-opacity="1"></path><path clip-path="url(#clip810)" d="M27.9899 1046.16 L44.8014 1050.32 Q45.8642 1050.61 45.993 1050.8 Q46.1218 1050.96 46.1218 1051.47 Q46.1218 1052.47 45.4455 1052.47 Q45.3811 1052.47 44.5437 1052.38 Q43.6742 1052.28 42.0961 1052.28 Q36.2668 1052.28 32.8208 1055.11 Q29.3748 1057.92 29.3748 1062.91 Q29.3748 1067.22 31.5648 1071.57 Q33.7548 1075.89 37.3296 1078.98 Q40.0349 1081.3 43.4487 1083 Q46.8625 1084.68 49.9865 1085.48 Q53.1105 1086.26 55.4615 1086.61 Q57.8125 1086.97 59.5194 1086.97 Q61.9993 1086.97 64.0927 1086.45 Q66.1861 1085.9 67.6675 1084.94 Q69.1168 1083.97 70.244 1082.75 Q71.339 1081.49 71.9831 1080.04 Q72.6272 1078.56 72.9493 1077.08 Q73.2391 1075.6 73.2391 1074.05 Q73.2391 1067.84 68.4083 1061.91 Q64.4469 1057.21 57.9736 1055.24 Q57.3294 1055.08 57.3294 1054.41 Q57.3294 1053.6 57.9736 1053.6 Q58.1024 1053.6 58.7465 1053.76 Q59.3584 1053.92 60.6144 1054.41 Q61.8383 1054.89 63.2231 1055.63 Q64.608 1056.37 66.3471 1057.75 Q68.0862 1059.14 69.5999 1060.85 Q72.1119 1063.75 73.69 1067.42 Q75.2681 1071.09 75.2681 1075.11 Q75.2681 1080.14 73.0459 1084.2 Q70.8237 1088.25 66.6691 1090.64 Q62.5146 1092.99 57.2006 1092.99 Q51.5968 1092.99 46.0896 1090.41 Q40.5824 1087.84 36.4923 1083.75 Q32.4021 1079.65 29.8578 1074.24 Q27.3136 1068.83 27.3136 1063.42 Q27.3136 1061.36 27.8611 1059.53 Q28.4086 1057.69 29.0849 1056.6 Q29.7612 1055.47 30.7596 1054.47 Q31.7258 1053.47 32.1767 1053.15 Q32.6275 1052.8 33.175 1052.47 L28.1187 1047.87 Q27.3136 1047.06 27.3136 1046.87 Q27.3136 1046.48 27.539 1046.32 Q27.7645 1046.16 27.9899 1046.16 Z" fill="#000000" fill-rule="nonzero" fill-opacity="1"></path><path clip-path="url(#clip810)" d="M63.8028 1027.99 Q62.9977 1027.92 62.9977 1026.67 L62.9977 986.247 Q62.9977 984.347 63.7384 984.315 Q64.5436 984.315 64.5114 986.119 L64.5114 1026.21 Q64.5436 1027.99 63.8028 1027.99 M50.9205 1027.99 Q50.1153 1027.99 50.1475 1026.6 L50.1475 986.312 Q50.1475 984.347 50.9205 984.315 Q51.6612 984.315 51.6612 985.99 L51.6612 1026.67 Q51.6612 1027.99 50.9205 1027.99 Z" fill="#000000" fill-rule="nonzero" fill-opacity="1"></path><path clip-path="url(#clip810)" d="M64.3825 928.66 Q68.5371 929.53 70.9203 930.657 Q74.5596 932.46 74.5596 935.52 Q74.5596 937.839 73.1425 939.481 Q71.7255 941.124 69.5999 941.51 Q74.5596 945.729 74.5596 950.109 Q74.5596 953.974 71.6288 956.422 Q68.6659 958.869 63.9961 958.869 Q59.294 958.869 54.7852 956.55 Q50.2764 954.199 47.4745 950.496 Q44.6725 946.792 44.6725 942.992 Q44.6725 938.966 48.8915 936.905 Q47.7321 936.744 46.8625 936.003 Q45.993 935.262 45.993 934.135 Q45.993 933.266 46.4761 932.75 Q46.927 932.235 47.7643 932.235 Q48.183 932.235 50.0187 932.686 L59.2296 935.069 L65.1877 936.518 Q67.3777 937.066 68.1828 937.227 Q68.988 937.356 70.0508 937.356 Q73.0781 937.356 73.0781 935.391 Q73.0781 934.425 72.4662 933.652 Q71.8543 932.879 70.5661 932.267 Q69.2778 931.655 68.0862 931.269 Q66.8624 930.882 64.93 930.367 Q64.1571 930.206 63.9639 930.077 Q63.7384 929.916 63.7384 929.465 Q63.7384 928.66 64.3825 928.66 M51.9189 937.71 Q51.629 937.71 50.8239 937.935 Q50.0187 938.161 48.8915 938.676 Q47.7643 939.191 46.9592 940.319 Q46.1218 941.414 46.1218 942.895 Q46.1218 944.892 47.8287 946.985 Q49.5356 949.046 52.4342 950.56 Q54.753 951.72 59.6161 952.976 Q64.4791 954.199 66.8946 954.199 Q68.3761 954.199 69.6965 953.877 Q70.9847 953.523 72.0475 952.525 Q73.0781 951.526 73.0781 949.98 Q73.0781 946.212 68.4083 942.509 Q67.6031 941.8 67.2811 941.639 Q66.9268 941.446 65.9606 941.188 L53.0461 937.903 Q52.0799 937.71 51.9189 937.71 Z" fill="#000000" fill-rule="nonzero" fill-opacity="1"></path><path clip-path="url(#clip810)" d="M55.2039 900.04 Q59.8415 900.04 64.3825 902.391 Q68.8913 904.71 71.7255 908.446 Q74.5596 912.149 74.5596 915.95 Q74.5596 919.653 71.7255 922.004 Q68.8591 924.323 64.1893 924.323 Q62.5468 924.323 61.3874 924.13 Q60.228 923.937 57.5227 923.26 L36.0092 917.85 Q31.9834 916.916 31.9512 916.916 Q31.5648 916.916 31.3715 917.077 Q31.1461 917.206 30.985 917.979 Q30.824 918.752 30.824 920.233 Q30.824 920.845 30.7918 921.135 Q30.7596 921.392 30.5986 921.618 Q30.4053 921.811 30.0189 921.811 Q29.4714 921.811 29.1815 921.586 Q28.8595 921.328 28.7951 921.135 Q28.7306 920.942 28.6984 920.555 Q28.6662 920.008 28.5052 918.172 Q28.312 916.336 28.1831 914.758 Q28.0543 913.18 28.0543 912.504 Q28.0543 912.117 28.2476 911.924 Q28.4086 911.698 28.6018 911.698 L28.7628 911.666 L48.6339 916.529 Q44.6725 912.697 44.6725 908.8 Q44.6725 904.903 47.6677 902.488 Q50.6628 900.04 55.2039 900.04 M52.3053 904.806 Q49.2458 904.806 47.6999 905.966 Q46.1218 907.093 46.1218 908.961 Q46.1218 910.539 47.3134 912.6 Q48.505 914.661 51.4036 916.851 Q51.9511 917.27 52.2731 917.431 Q52.5952 917.56 53.6902 917.85 L59.7771 919.299 Q63.9316 920.362 66.4437 920.362 Q69.8575 920.362 71.4678 919.106 Q73.0781 917.85 73.0781 915.95 Q73.0781 913.953 71.3068 911.86 Q69.5355 909.766 66.3149 908.156 Q64.1893 907.157 59.6161 905.998 Q55.0106 904.806 52.3053 904.806 Z" fill="#000000" fill-rule="nonzero" fill-opacity="1"></path><path clip-path="url(#clip810)" d="M50.3408 872.033 Q52.1443 872.033 53.1105 872.935 Q54.0444 873.837 54.0444 875.06 Q54.0444 876.059 53.4647 876.606 Q52.885 877.122 52.1121 877.122 Q50.9849 877.122 50.0831 876.22 Q49.1814 875.286 49.1492 873.933 Q47.9575 874.384 47.249 875.576 Q46.5083 876.767 46.315 877.83 Q46.1218 878.861 46.1218 879.891 Q46.1218 881.92 46.7659 883.466 Q47.41 885.012 48.4084 885.785 Q49.3746 886.558 50.3086 886.912 Q51.2425 887.266 52.0477 887.266 Q52.7562 887.266 53.3359 887.105 Q53.8834 886.912 54.3021 886.461 Q54.6886 886.01 54.9462 885.688 Q55.2039 885.334 55.4293 884.561 Q55.6547 883.788 55.7514 883.466 Q55.8158 883.144 56.009 882.242 Q56.3955 880.374 56.6209 879.537 Q56.8142 878.7 57.3616 877.605 Q57.9091 876.477 58.7787 875.64 Q60.8077 873.611 63.6096 873.611 Q64.6402 873.611 65.8962 873.965 Q67.1522 874.287 68.7303 875.221 Q70.3084 876.155 71.5644 877.572 Q72.8205 878.99 73.69 881.437 Q74.5596 883.853 74.5596 886.88 Q74.5596 891.099 72.7883 893.708 Q70.9847 896.316 68.1506 896.316 Q66.0894 896.316 64.9622 895.189 Q63.8028 894.062 63.8028 892.613 Q63.8028 891.518 64.4147 890.841 Q64.9944 890.165 66.0894 890.165 Q67.5709 890.165 68.6981 891.357 Q69.8253 892.548 69.5999 894.32 Q73.0781 892.806 73.0781 886.816 Q73.0781 884.561 72.4984 882.822 Q71.8865 881.051 71.0491 880.085 Q70.1796 879.086 69.1168 878.442 Q68.054 877.798 67.2488 877.605 Q66.4437 877.379 65.8318 877.379 Q64.769 877.379 63.9639 877.798 Q63.1587 878.217 62.7078 878.796 Q62.2247 879.344 61.8383 880.407 Q61.4196 881.437 61.2586 882.178 Q61.0975 882.919 60.8399 884.239 Q60.7111 884.851 60.6466 885.237 Q60.55 885.624 60.2924 886.429 Q60.0025 887.202 59.7127 887.75 Q59.4228 888.265 58.9075 888.941 Q58.3922 889.617 57.7803 890.036 Q57.1684 890.455 56.2667 890.745 Q55.3649 891.035 54.3021 891.035 Q53.3359 891.035 52.1765 890.745 Q51.0171 890.423 49.6644 889.617 Q48.3118 888.78 47.2168 887.589 Q46.1218 886.397 45.4133 884.4 Q44.6725 882.371 44.6725 879.891 Q44.6725 876.284 46.3472 874.159 Q47.9897 872.033 50.3408 872.033 Z" fill="#000000" fill-rule="nonzero" fill-opacity="1"></path><path clip-path="url(#clip810)" d="M88.2793 860.942 L26.8627 860.942 Q24.4151 860.942 24.4151 859.621 Q24.4151 858.301 26.3796 858.301 L87.7962 858.301 Q90.2438 858.301 90.2438 859.621 Q90.2438 860.942 88.2793 860.942 Z" fill="#000000" fill-rule="nonzero" fill-opacity="1"></path><path clip-path="url(#clip810)" d="M57.3294 815.414 Q56.8142 815.414 56.2667 814.351 L39.584 777.765 Q38.9399 776.445 38.9399 776.09 Q38.9399 775.446 39.584 775.446 Q40.0993 775.446 40.84 776.96 L55.6225 809.134 Q56.5565 811.098 57.3294 812.966 Q58.1346 811.13 59.0364 809.134 L73.8188 776.96 Q74.463 775.446 75.0749 775.446 Q75.719 775.446 75.719 776.09 Q75.719 776.412 75.0749 777.765 L58.3922 814.351 Q57.9736 815.349 57.3294 815.414 Z" fill="#000000" fill-rule="nonzero" fill-opacity="1"></path><path clip-path="url(#clip810)" d="M49.278 706.329 Q51.2103 706.329 54.5919 707.07 Q57.9736 707.779 59.5839 708.358 Q63.8672 709.969 67.4743 713.189 Q69.4711 714.961 70.9203 716.893 Q72.3374 718.793 73.0459 720.21 Q73.7222 721.627 74.0765 723.302 Q74.463 724.977 74.4952 725.75 Q74.5596 726.522 74.5596 727.617 L84.3824 730.13 Q86.9266 730.645 87.0877 730.902 Q87.2165 730.967 87.2809 731.128 Q87.3453 731.257 87.3453 731.386 L87.3453 731.514 Q87.3453 731.869 87.1843 732.062 Q87.0232 732.255 86.83 732.287 L86.669 732.287 Q86.2181 732.287 80.421 730.774 Q77.4581 730.001 74.3986 729.324 Q74.0765 734.477 71.7899 737.666 Q69.5033 740.822 65.0589 740.822 Q62.3214 740.822 53.9156 737.633 Q49.8899 736.12 48.2152 736.12 Q47.4745 736.12 47.0236 736.281 Q46.5405 736.442 46.3795 736.764 Q46.1862 737.086 46.154 737.279 Q46.1218 737.44 46.1218 737.762 Q46.1218 739.662 48.022 741.434 Q49.9221 743.205 54.3021 744.429 Q55.1072 744.687 55.3005 744.848 Q55.4937 745.009 55.4937 745.492 Q55.4615 746.297 54.8174 746.297 Q54.5597 746.297 53.5614 746.007 Q52.5308 745.717 51.0171 745.041 Q49.4712 744.332 48.0864 743.366 Q46.6693 742.4 45.6709 740.886 Q44.6725 739.34 44.6725 737.569 Q44.6725 735.154 46.2506 733.672 Q47.7965 732.158 50.0831 732.158 Q50.534 732.158 51.0493 732.255 Q51.5646 732.352 51.8544 732.448 Q52.1443 732.513 52.6918 732.706 Q53.2071 732.867 53.3037 732.899 Q57.5549 734.542 60.3246 735.379 Q63.0621 736.216 63.8672 736.345 Q64.6402 736.442 65.5741 736.442 Q72.0797 736.442 72.9493 728.938 L29.3748 717.988 Q28.473 717.795 28.2798 717.634 Q28.0543 717.473 28.0543 716.99 Q28.0543 716.217 28.7628 716.217 Q28.9883 716.217 29.7612 716.41 L73.0781 727.295 Q73.0781 726.265 73.0459 725.621 Q73.0137 724.977 72.7238 723.624 Q72.4018 722.239 71.8221 721.08 Q71.2424 719.888 70.083 718.213 Q68.8913 716.539 67.2166 714.896 Q65.1233 712.835 61.6128 710.999 Q58.1024 709.163 55.2039 709.163 Q51.9511 709.163 49.6 711.515 Q49.278 711.869 49.0847 712.062 Q48.8915 712.223 48.5694 712.384 Q48.2474 712.513 47.8287 712.513 Q46.7337 712.513 45.7031 711.482 Q44.6725 710.452 44.6725 709.228 Q44.6725 708.133 45.7353 707.231 Q46.7981 706.329 49.278 706.329 Z" fill="#000000" fill-rule="nonzero" fill-opacity="1"></path><path clip-path="url(#clip810)" d="M88.2793 695.592 L26.8627 695.592 Q24.4151 695.592 24.4151 694.272 Q24.4151 692.951 26.3796 692.951 L87.7962 692.951 Q90.2438 692.951 90.2438 694.272 Q90.2438 695.592 88.2793 695.592 Z" fill="#000000" fill-rule="nonzero" fill-opacity="1"></path><path clip-path="url(#clip810)" d="M12.9091 634.97 Q12.9542 634.97 12.9993 635.015 Q15.389 635.308 16.7191 635.872 Q18.0266 636.436 18.6353 637.698 Q19.0862 638.622 19.0862 639.772 Q19.0862 641.508 17.9365 644.01 Q17.8914 644.101 17.6659 644.597 Q17.4405 645.092 17.3729 645.273 Q17.3052 645.453 17.17 645.836 Q17.0121 646.22 16.9671 646.513 Q16.922 646.806 16.922 647.099 Q16.922 647.73 17.1925 648.271 Q17.7336 649.376 18.5451 650.052 Q19.3342 650.751 20.7545 650.931 Q20.9348 650.976 21.0701 651.134 Q21.2054 651.292 21.2054 651.495 Q21.2054 651.698 21.0475 651.878 Q20.8897 652.059 20.6643 652.059 Q20.6192 652.059 20.5741 652.014 Q18.1844 651.72 16.8769 651.157 Q15.5468 650.593 14.9381 649.331 Q14.4647 648.339 14.4647 647.257 Q14.4647 645.566 15.637 642.996 Q15.682 642.906 15.9075 642.41 Q16.1329 641.914 16.2006 641.733 Q16.2682 641.553 16.426 641.17 Q16.5613 640.787 16.6064 640.493 Q16.6514 640.2 16.6514 639.907 Q16.6514 639.344 16.3584 638.758 Q15.8173 637.653 15.0283 636.954 Q14.2392 636.255 12.8189 636.075 Q12.6386 636.03 12.5033 635.872 Q12.3455 635.714 12.3455 635.511 Q12.3455 635.308 12.5259 635.128 Q12.6837 634.97 12.9091 634.97 Z" fill="#000000" fill-rule="nonzero" fill-opacity="1"></path><path clip-path="url(#clip810)" d="M49.278 628.399 Q51.2103 628.399 54.5919 629.14 Q57.9736 629.849 59.5839 630.428 Q63.8672 632.039 67.4743 635.259 Q69.4711 637.031 70.9203 638.963 Q72.3374 640.863 73.0459 642.28 Q73.7222 643.697 74.0765 645.372 Q74.463 647.047 74.4952 647.819 Q74.5596 648.592 74.5596 649.687 L84.3824 652.199 Q86.9266 652.715 87.0877 652.972 Q87.2165 653.037 87.2809 653.198 Q87.3453 653.327 87.3453 653.455 L87.3453 653.584 Q87.3453 653.939 87.1843 654.132 Q87.0232 654.325 86.83 654.357 L86.669 654.357 Q86.2181 654.357 80.421 652.844 Q77.4581 652.071 74.3986 651.394 Q74.0765 656.547 71.7899 659.736 Q69.5033 662.892 65.0589 662.892 Q62.3214 662.892 53.9156 659.703 Q49.8899 658.19 48.2152 658.19 Q47.4745 658.19 47.0236 658.351 Q46.5405 658.512 46.3795 658.834 Q46.1862 659.156 46.154 659.349 Q46.1218 659.51 46.1218 659.832 Q46.1218 661.732 48.022 663.504 Q49.9221 665.275 54.3021 666.499 Q55.1072 666.757 55.3005 666.918 Q55.4937 667.079 55.4937 667.562 Q55.4615 668.367 54.8174 668.367 Q54.5597 668.367 53.5614 668.077 Q52.5308 667.787 51.0171 667.111 Q49.4712 666.402 48.0864 665.436 Q46.6693 664.47 45.6709 662.956 Q44.6725 661.41 44.6725 659.639 Q44.6725 657.224 46.2506 655.742 Q47.7965 654.228 50.0831 654.228 Q50.534 654.228 51.0493 654.325 Q51.5646 654.422 51.8544 654.518 Q52.1443 654.583 52.6918 654.776 Q53.2071 654.937 53.3037 654.969 Q57.5549 656.612 60.3246 657.449 Q63.0621 658.286 63.8672 658.415 Q64.6402 658.512 65.5741 658.512 Q72.0797 658.512 72.9493 651.008 L29.3748 640.058 Q28.473 639.865 28.2798 639.704 Q28.0543 639.543 28.0543 639.059 Q28.0543 638.287 28.7628 638.287 Q28.9883 638.287 29.7612 638.48 L73.0781 649.365 Q73.0781 648.335 73.0459 647.691 Q73.0137 647.047 72.7238 645.694 Q72.4018 644.309 71.8221 643.15 Q71.2424 641.958 70.083 640.283 Q68.8913 638.609 67.2166 636.966 Q65.1233 634.905 61.6128 633.069 Q58.1024 631.233 55.2039 631.233 Q51.9511 631.233 49.6 633.584 Q49.278 633.939 49.0847 634.132 Q48.8915 634.293 48.5694 634.454 Q48.2474 634.583 47.8287 634.583 Q46.7337 634.583 45.7031 633.552 Q44.6725 632.522 44.6725 631.298 Q44.6725 630.203 45.7353 629.301 Q46.7981 628.399 49.278 628.399 Z" fill="#000000" fill-rule="nonzero" fill-opacity="1"></path><path clip-path="url(#clip810)" d="M75.0749 610.486 Q74.6884 610.486 74.463 610.196 Q74.2697 609.874 73.8188 608.908 L59.0364 576.702 Q57.8447 574.19 57.3294 572.902 Q56.8142 574.222 55.6225 576.702 L40.84 608.908 Q40.7756 609.037 40.6468 609.327 Q40.518 609.617 40.4214 609.81 Q40.3247 609.971 40.1959 610.132 Q40.0349 610.293 39.9061 610.389 Q39.7772 610.486 39.584 610.486 Q38.9399 610.486 38.9399 609.745 Q38.9399 609.423 39.584 608.103 L56.2667 571.517 Q56.2667 571.453 56.3633 571.292 Q56.4599 571.098 56.5887 570.969 Q56.6853 570.841 56.7819 570.712 Q56.8786 570.583 57.0074 570.519 Q57.1362 570.454 57.3294 570.454 Q57.9091 570.519 58.7787 572.354 L75.0749 608.103 Q75.719 609.423 75.719 609.745 Q75.719 610.486 75.0749 610.486 Z" fill="#000000" fill-rule="nonzero" fill-opacity="1"></path><path clip-path="url(#clip810)" d="M88.2793 541.369 L26.8627 541.369 Q24.4151 541.369 24.4151 540.049 Q24.4151 538.728 26.3796 538.728 L87.7962 538.728 Q90.2438 538.728 90.2438 540.049 Q90.2438 541.369 88.2793 541.369 Z" fill="#000000" fill-rule="nonzero" fill-opacity="1"></path><path clip-path="url(#clip810)" d="M978.682 37.9225 L978.682 46.551 Q974.55 42.7026 969.851 40.7987 Q965.192 38.8948 959.926 38.8948 Q949.556 38.8948 944.046 45.2547 Q938.537 51.5741 938.537 63.5648 Q938.537 75.5149 944.046 81.8749 Q949.556 88.1943 959.926 88.1943 Q965.192 88.1943 969.851 86.2903 Q974.55 84.3864 978.682 80.5381 L978.682 89.0855 Q974.388 92.0021 969.567 93.4604 Q964.787 94.9188 959.44 94.9188 Q945.707 94.9188 937.808 86.5334 Q929.909 78.1075 929.909 63.5648 Q929.909 48.9815 937.808 40.5961 Q945.707 32.1703 959.44 32.1703 Q964.868 32.1703 969.648 33.6286 Q974.469 35.0464 978.682 37.9225 Z" fill="#000000" fill-rule="nonzero" fill-opacity="1"></path><path clip-path="url(#clip810)" d="M1008.58 53.5995 Q1002.58 53.5995 999.098 58.2986 Q995.614 62.9571 995.614 71.0994 Q995.614 79.2418 999.058 83.9408 Q1002.54 88.5994 1008.58 88.5994 Q1014.53 88.5994 1018.02 83.9003 Q1021.5 79.2013 1021.5 71.0994 Q1021.5 63.0381 1018.02 58.3391 Q1014.53 53.5995 1008.58 53.5995 M1008.58 47.2801 Q1018.3 47.2801 1023.85 53.5995 Q1029.4 59.9189 1029.4 71.0994 Q1029.4 82.2394 1023.85 88.5994 Q1018.3 94.9188 1008.58 94.9188 Q998.815 94.9188 993.265 88.5994 Q987.756 82.2394 987.756 71.0994 Q987.756 59.9189 993.265 53.5995 Q998.815 47.2801 1008.58 47.2801 Z" fill="#000000" fill-rule="nonzero" fill-opacity="1"></path><path clip-path="url(#clip810)" d="M1079.47 66.3599 L1079.47 93.744 L1072.01 93.744 L1072.01 66.6029 Q1072.01 60.162 1069.5 56.9618 Q1066.99 53.7616 1061.97 53.7616 Q1055.93 53.7616 1052.45 57.6099 Q1048.96 61.4583 1048.96 68.1018 L1048.96 93.744 L1041.47 93.744 L1041.47 48.3739 L1048.96 48.3739 L1048.96 55.4224 Q1051.64 51.331 1055.24 49.3056 Q1058.89 47.2801 1063.63 47.2801 Q1071.45 47.2801 1075.46 52.1412 Q1079.47 56.9618 1079.47 66.3599 Z" fill="#000000" fill-rule="nonzero" fill-opacity="1"></path><path clip-path="url(#clip810)" d="M1088.99 48.3739 L1096.89 48.3739 L1111.07 86.4524 L1125.24 48.3739 L1133.14 48.3739 L1116.13 93.744 L1106 93.744 L1088.99 48.3739 Z" fill="#000000" fill-rule="nonzero" fill-opacity="1"></path><path clip-path="url(#clip810)" d="M1182.24 69.1955 L1182.24 72.8413 L1147.97 72.8413 Q1148.45 80.5381 1152.59 84.589 Q1156.76 88.5994 1164.17 88.5994 Q1168.47 88.5994 1172.48 87.5461 Q1176.53 86.4929 1180.5 84.3864 L1180.5 91.435 Q1176.49 93.1364 1172.27 94.0276 Q1168.06 94.9188 1163.73 94.9188 Q1152.87 94.9188 1146.51 88.5994 Q1140.19 82.2799 1140.19 71.5045 Q1140.19 60.3645 1146.19 53.8426 Q1152.22 47.2801 1162.43 47.2801 Q1171.59 47.2801 1176.89 53.1944 Q1182.24 59.0683 1182.24 69.1955 M1174.79 67.008 Q1174.7 60.8912 1171.34 57.2454 Q1168.02 53.5995 1162.51 53.5995 Q1156.27 53.5995 1152.51 57.1238 Q1148.78 60.6481 1148.21 67.0485 L1174.79 67.008 Z" fill="#000000" fill-rule="nonzero" fill-opacity="1"></path><path clip-path="url(#clip810)" d="M1220.76 55.3414 Q1219.51 54.6123 1218.01 54.2882 Q1216.55 53.9236 1214.77 53.9236 Q1208.45 53.9236 1205.05 58.0555 Q1201.68 62.1469 1201.68 69.8437 L1201.68 93.744 L1194.19 93.744 L1194.19 48.3739 L1201.68 48.3739 L1201.68 55.4224 Q1204.03 51.2905 1207.8 49.3056 Q1211.57 47.2801 1216.96 47.2801 Q1217.73 47.2801 1218.66 47.4017 Q1219.59 47.4827 1220.72 47.6852 L1220.76 55.3414 Z" fill="#000000" fill-rule="nonzero" fill-opacity="1"></path><path clip-path="url(#clip810)" d="M1256.98 70.5323 Q1256.98 62.4305 1253.62 57.9745 Q1250.29 53.5185 1244.26 53.5185 Q1238.26 53.5185 1234.9 57.9745 Q1231.58 62.4305 1231.58 70.5323 Q1231.58 78.5936 1234.9 83.0496 Q1238.26 87.5056 1244.26 87.5056 Q1250.29 87.5056 1253.62 83.0496 Q1256.98 78.5936 1256.98 70.5323 M1264.43 88.1132 Q1264.43 99.6988 1259.29 105.33 Q1254.14 111.001 1243.53 111.001 Q1239.6 111.001 1236.12 110.393 Q1232.63 109.826 1229.35 108.611 L1229.35 101.36 Q1232.63 103.142 1235.83 103.993 Q1239.03 104.843 1242.35 104.843 Q1249.69 104.843 1253.33 100.995 Q1256.98 97.1873 1256.98 89.45 L1256.98 85.7637 Q1254.67 89.7741 1251.06 91.7591 Q1247.46 93.744 1242.44 93.744 Q1234.09 93.744 1228.99 87.3841 Q1223.88 81.0242 1223.88 70.5323 Q1223.88 60 1228.99 53.64 Q1234.09 47.2801 1242.44 47.2801 Q1247.46 47.2801 1251.06 49.2651 Q1254.67 51.25 1256.98 55.2604 L1256.98 48.3739 L1264.43 48.3739 L1264.43 88.1132 Z" fill="#000000" fill-rule="nonzero" fill-opacity="1"></path><path clip-path="url(#clip810)" d="M1318.59 69.1955 L1318.59 72.8413 L1284.32 72.8413 Q1284.81 80.5381 1288.94 84.589 Q1293.11 88.5994 1300.53 88.5994 Q1304.82 88.5994 1308.83 87.5461 Q1312.88 86.4929 1316.85 84.3864 L1316.85 91.435 Q1312.84 93.1364 1308.63 94.0276 Q1304.41 94.9188 1300.08 94.9188 Q1289.22 94.9188 1282.86 88.5994 Q1276.54 82.2799 1276.54 71.5045 Q1276.54 60.3645 1282.54 53.8426 Q1288.58 47.2801 1298.78 47.2801 Q1307.94 47.2801 1313.25 53.1944 Q1318.59 59.0683 1318.59 69.1955 M1311.14 67.008 Q1311.06 60.8912 1307.7 57.2454 Q1304.37 53.5995 1298.87 53.5995 Q1292.63 53.5995 1288.86 57.1238 Q1285.13 60.6481 1284.57 67.0485 L1311.14 67.008 Z" fill="#000000" fill-rule="nonzero" fill-opacity="1"></path><path clip-path="url(#clip810)" d="M1373.12 93.744 L1350.03 33.264 L1358.58 33.264 L1377.74 84.1839 L1396.94 33.264 L1405.44 33.264 L1382.39 93.744 L1373.12 93.744 Z" fill="#000000" fill-rule="nonzero" fill-opacity="1"></path><path clip-path="url(#clip810)" d="M1428.13 70.9374 Q1419.1 70.9374 1415.61 73.0034 Q1412.13 75.0693 1412.13 80.0519 Q1412.13 84.0218 1414.72 86.3714 Q1417.35 88.6804 1421.85 88.6804 Q1428.05 88.6804 1431.78 84.3054 Q1435.54 79.8899 1435.54 72.5983 L1435.54 70.9374 L1428.13 70.9374 M1443 67.8587 L1443 93.744 L1435.54 93.744 L1435.54 86.8575 Q1432.99 90.9894 1429.18 92.9743 Q1425.37 94.9188 1419.87 94.9188 Q1412.9 94.9188 1408.77 91.0299 Q1404.67 87.1005 1404.67 80.5381 Q1404.67 72.8818 1409.78 68.993 Q1414.92 65.1041 1425.09 65.1041 L1435.54 65.1041 L1435.54 64.3749 Q1435.54 59.2303 1432.14 56.4352 Q1428.78 53.5995 1422.66 53.5995 Q1418.77 53.5995 1415.09 54.5312 Q1411.4 55.463 1408 57.3264 L1408 50.4398 Q1412.09 48.86 1415.94 48.0903 Q1419.78 47.2801 1423.43 47.2801 Q1433.27 47.2801 1438.14 52.3843 Q1443 57.4884 1443 67.8587 Z" fill="#000000" fill-rule="nonzero" fill-opacity="1"></path><path clip-path="url(#clip810)" d="M1458.35 30.7119 L1465.8 30.7119 L1465.8 93.744 L1458.35 93.744 L1458.35 30.7119 Z" fill="#000000" fill-rule="nonzero" fill-opacity="1"></path><path clip-path="url(#clip810)" d="M1480.63 75.839 L1480.63 48.3739 L1488.08 48.3739 L1488.08 75.5554 Q1488.08 81.9964 1490.59 85.2371 Q1493.11 88.4373 1498.13 88.4373 Q1504.16 88.4373 1507.65 84.589 Q1511.17 80.7406 1511.17 74.0971 L1511.17 48.3739 L1518.63 48.3739 L1518.63 93.744 L1511.17 93.744 L1511.17 86.7764 Q1508.46 90.9084 1504.85 92.9338 Q1501.29 94.9188 1496.55 94.9188 Q1488.73 94.9188 1484.68 90.0577 Q1480.63 85.1966 1480.63 75.839 M1499.38 47.2801 L1499.38 47.2801 Z" fill="#000000" fill-rule="nonzero" fill-opacity="1"></path><path clip-path="url(#clip810)" d="M1572.79 69.1955 L1572.79 72.8413 L1538.52 72.8413 Q1539 80.5381 1543.13 84.589 Q1547.31 88.5994 1554.72 88.5994 Q1559.01 88.5994 1563.02 87.5461 Q1567.08 86.4929 1571.05 84.3864 L1571.05 91.435 Q1567.03 93.1364 1562.82 94.0276 Q1558.61 94.9188 1554.27 94.9188 Q1543.42 94.9188 1537.06 88.5994 Q1530.74 82.2799 1530.74 71.5045 Q1530.74 60.3645 1536.73 53.8426 Q1542.77 47.2801 1552.98 47.2801 Q1562.13 47.2801 1567.44 53.1944 Q1572.79 59.0683 1572.79 69.1955 M1565.33 67.008 Q1565.25 60.8912 1561.89 57.2454 Q1558.57 53.5995 1553.06 53.5995 Q1546.82 53.5995 1543.05 57.1238 Q1539.33 60.6481 1538.76 67.0485 L1565.33 67.008 Z" fill="#000000" fill-rule="nonzero" fill-opacity="1"></path><path clip-path="url(#clip810)" d="M1613.94 49.7107 L1613.94 56.7592 Q1610.78 55.1389 1607.38 54.3287 Q1603.98 53.5185 1600.33 53.5185 Q1594.78 53.5185 1591.99 55.2199 Q1589.23 56.9213 1589.23 60.324 Q1589.23 62.9166 1591.22 64.4155 Q1593.2 65.8738 1599.2 67.2106 L1601.75 67.7777 Q1609.69 69.4791 1613.01 72.5983 Q1616.37 75.677 1616.37 81.2267 Q1616.37 87.5461 1611.35 91.2324 Q1606.37 94.9188 1597.62 94.9188 Q1593.97 94.9188 1590 94.1896 Q1586.07 93.5009 1581.7 92.0831 L1581.7 84.3864 Q1585.83 86.5334 1589.84 87.6271 Q1593.85 88.6804 1597.78 88.6804 Q1603.05 88.6804 1605.88 86.898 Q1608.72 85.0751 1608.72 81.7938 Q1608.72 78.7557 1606.65 77.1353 Q1604.63 75.5149 1597.7 74.0161 L1595.11 73.4085 Q1588.18 71.9501 1585.1 68.9525 Q1582.02 65.9143 1582.02 60.6481 Q1582.02 54.2477 1586.56 50.7639 Q1591.1 47.2801 1599.44 47.2801 Q1603.57 47.2801 1607.22 47.8878 Q1610.87 48.4954 1613.94 49.7107 Z" fill="#000000" fill-rule="nonzero" fill-opacity="1"></path><path clip-path="url(#clip810)" d="M1069.44 125.969 L1069.44 133.949 Q1064.78 131.721 1060.65 130.627 Q1056.52 129.534 1052.67 129.534 Q1045.99 129.534 1042.34 132.126 Q1038.74 134.719 1038.74 139.499 Q1038.74 143.509 1041.13 145.575 Q1043.56 147.601 1050.28 148.857 L1055.22 149.869 Q1064.38 151.611 1068.71 156.027 Q1073.09 160.402 1073.09 167.774 Q1073.09 176.565 1067.17 181.102 Q1061.3 185.639 1049.92 185.639 Q1045.62 185.639 1040.76 184.667 Q1035.94 183.694 1030.76 181.79 L1030.76 173.365 Q1035.74 176.16 1040.52 177.577 Q1045.3 178.995 1049.92 178.995 Q1056.92 178.995 1060.73 176.241 Q1064.54 173.486 1064.54 168.382 Q1064.54 163.926 1061.79 161.414 Q1059.07 158.903 1052.83 157.647 L1047.85 156.675 Q1038.7 154.852 1034.6 150.963 Q1030.51 147.074 1030.51 140.147 Q1030.51 132.126 1036.14 127.508 Q1041.81 122.89 1051.74 122.89 Q1055.99 122.89 1060.41 123.66 Q1064.82 124.43 1069.44 125.969 Z" fill="#000000" fill-rule="nonzero" fill-opacity="1"></path><path clip-path="url(#clip810)" d="M1092.9 126.212 L1092.9 139.094 L1108.25 139.094 L1108.25 144.887 L1092.9 144.887 L1092.9 169.516 Q1092.9 175.066 1094.4 176.646 Q1095.94 178.226 1100.59 178.226 L1108.25 178.226 L1108.25 184.464 L1100.59 184.464 Q1091.97 184.464 1088.68 181.264 Q1085.4 178.023 1085.4 169.516 L1085.4 144.887 L1079.93 144.887 L1079.93 139.094 L1085.4 139.094 L1085.4 126.212 L1092.9 126.212 Z" fill="#000000" fill-rule="nonzero" fill-opacity="1"></path><path clip-path="url(#clip810)" d="M1156.86 159.916 L1156.86 163.561 L1122.59 163.561 Q1123.08 171.258 1127.21 175.309 Q1131.38 179.319 1138.79 179.319 Q1143.09 179.319 1147.1 178.266 Q1151.15 177.213 1155.12 175.106 L1155.12 182.155 Q1151.11 183.856 1146.9 184.748 Q1142.68 185.639 1138.35 185.639 Q1127.49 185.639 1121.13 179.319 Q1114.81 173 1114.81 162.225 Q1114.81 151.085 1120.81 144.563 Q1126.84 138 1137.05 138 Q1146.21 138 1151.51 143.914 Q1156.86 149.788 1156.86 159.916 M1149.41 157.728 Q1149.33 151.611 1145.96 147.965 Q1142.64 144.32 1137.13 144.32 Q1130.89 144.32 1127.13 147.844 Q1123.4 151.368 1122.83 157.769 L1149.41 157.728 Z" fill="#000000" fill-rule="nonzero" fill-opacity="1"></path><path clip-path="url(#clip810)" d="M1176.3 177.658 L1176.3 201.721 L1168.81 201.721 L1168.81 139.094 L1176.3 139.094 L1176.3 145.98 Q1178.65 141.93 1182.22 139.985 Q1185.82 138 1190.81 138 Q1199.07 138 1204.22 144.563 Q1209.4 151.125 1209.4 161.819 Q1209.4 172.514 1204.22 179.076 Q1199.07 185.639 1190.81 185.639 Q1185.82 185.639 1182.22 183.694 Q1178.65 181.709 1176.3 177.658 M1201.66 161.819 Q1201.66 153.596 1198.26 148.938 Q1194.9 144.239 1188.98 144.239 Q1183.07 144.239 1179.67 148.938 Q1176.3 153.596 1176.3 161.819 Q1176.3 170.043 1179.67 174.742 Q1183.07 179.4 1188.98 179.4 Q1194.9 179.4 1198.26 174.742 Q1201.66 170.043 1201.66 161.819 Z" fill="#000000" fill-rule="nonzero" fill-opacity="1"></path><path clip-path="url(#clip810)" d="M1284.71 125.969 L1284.71 133.949 Q1280.05 131.721 1275.92 130.627 Q1271.78 129.534 1267.94 129.534 Q1261.25 129.534 1257.61 132.126 Q1254 134.719 1254 139.499 Q1254 143.509 1256.39 145.575 Q1258.82 147.601 1265.55 148.857 L1270.49 149.869 Q1279.64 151.611 1283.98 156.027 Q1288.35 160.402 1288.35 167.774 Q1288.35 176.565 1282.44 181.102 Q1276.56 185.639 1265.18 185.639 Q1260.89 185.639 1256.03 184.667 Q1251.21 183.694 1246.02 181.79 L1246.02 173.365 Q1251 176.16 1255.78 177.577 Q1260.56 178.995 1265.18 178.995 Q1272.19 178.995 1276 176.241 Q1279.81 173.486 1279.81 168.382 Q1279.81 163.926 1277.05 161.414 Q1274.34 158.903 1268.1 157.647 L1263.12 156.675 Q1253.96 154.852 1249.87 150.963 Q1245.78 147.074 1245.78 140.147 Q1245.78 132.126 1251.41 127.508 Q1257.08 122.89 1267 122.89 Q1271.26 122.89 1275.67 123.66 Q1280.09 124.43 1284.71 125.969 Z" fill="#000000" fill-rule="nonzero" fill-opacity="1"></path><path clip-path="url(#clip810)" d="M1300.79 139.094 L1308.24 139.094 L1308.24 184.464 L1300.79 184.464 L1300.79 139.094 M1300.79 121.432 L1308.24 121.432 L1308.24 130.871 L1300.79 130.871 L1300.79 121.432 Z" fill="#000000" fill-rule="nonzero" fill-opacity="1"></path><path clip-path="url(#clip810)" d="M1320.6 139.094 L1356 139.094 L1356 145.899 L1327.97 178.509 L1356 178.509 L1356 184.464 L1319.59 184.464 L1319.59 177.658 L1347.62 145.049 L1320.6 145.049 L1320.6 139.094 Z" fill="#000000" fill-rule="nonzero" fill-opacity="1"></path><path clip-path="url(#clip810)" d="M1406.19 159.916 L1406.19 163.561 L1371.92 163.561 Q1372.41 171.258 1376.54 175.309 Q1380.71 179.319 1388.13 179.319 Q1392.42 179.319 1396.43 178.266 Q1400.48 177.213 1404.45 175.106 L1404.45 182.155 Q1400.44 183.856 1396.23 184.748 Q1392.02 185.639 1387.68 185.639 Q1376.82 185.639 1370.46 179.319 Q1364.15 173 1364.15 162.225 Q1364.15 151.085 1370.14 144.563 Q1376.18 138 1386.38 138 Q1395.54 138 1400.85 143.914 Q1406.19 149.788 1406.19 159.916 M1398.74 157.728 Q1398.66 151.611 1395.3 147.965 Q1391.98 144.32 1386.47 144.32 Q1380.23 144.32 1376.46 147.844 Q1372.73 151.368 1372.17 157.769 L1398.74 157.728 Z" fill="#000000" fill-rule="nonzero" fill-opacity="1"></path><path clip-path="url(#clip810)" d="M1419.4 146.791 L1471.33 146.791 L1471.33 153.596 L1419.4 153.596 L1419.4 146.791 M1419.4 163.318 L1471.33 163.318 L1471.33 170.205 L1419.4 170.205 L1419.4 163.318 Z" fill="#000000" fill-rule="nonzero" fill-opacity="1"></path><path clip-path="url(#clip810)" d="M1496.04 177.577 L1524.6 177.577 L1524.6 184.464 L1486.2 184.464 L1486.2 177.577 Q1490.86 172.757 1498.88 164.655 Q1506.94 156.513 1509.01 154.163 Q1512.94 149.748 1514.47 146.71 Q1516.05 143.631 1516.05 140.674 Q1516.05 135.853 1512.65 132.815 Q1509.29 129.777 1503.86 129.777 Q1500.01 129.777 1495.72 131.114 Q1491.47 132.45 1486.6 135.164 L1486.6 126.901 Q1491.55 124.916 1495.84 123.903 Q1500.13 122.89 1503.7 122.89 Q1513.1 122.89 1518.69 127.589 Q1524.28 132.288 1524.28 140.147 Q1524.28 143.874 1522.86 147.236 Q1521.48 150.558 1517.8 155.095 Q1516.78 156.27 1511.36 161.9 Q1505.93 167.491 1496.04 177.577 Z" fill="#000000" fill-rule="nonzero" fill-opacity="1"></path><path clip-path="url(#clip810)" d="M1543.2 177.577 L1556.56 177.577 L1556.56 131.438 L1542.02 134.354 L1542.02 126.901 L1556.48 123.984 L1564.67 123.984 L1564.67 177.577 L1578.03 177.577 L1578.03 184.464 L1543.2 184.464 L1543.2 177.577 Z" fill="#000000" fill-rule="nonzero" fill-opacity="1"></path><polyline clip-path="url(#clip812)" style="stroke:#009af9; stroke-linecap:round; stroke-linejoin:round; stroke-width:4; stroke-opacity:1; fill:none" points="284.199,488.457 287.342,935.094 290.485,825.235 293.628,754.096 296.771,771.444 299.914,521.487 303.057,701.496 306.199,396.858 309.342,709.615 312.485,1041.56 315.628,726.857 318.771,666.168 321.914,534.048 325.057,430.909 328.2,715.987 331.343,513.522 334.485,305.91 337.628,474.712 340.771,430.793 343.914,747.497 347.057,478.852 350.2,531.993 353.343,721.078 356.486,650.555 359.629,672.478 362.772,473.169 365.914,740.079 369.057,800.742 372.2,445.475 375.343,640.046 378.486,659.069 381.629,645.082 384.772,325.831 387.915,614.763 391.058,743.755 394.2,679.23 397.343,530.474 400.486,398.729 403.629,603.045 406.772,514.335 409.915,473.609 413.058,379.09 416.201,564.18 419.344,630.155 422.486,454.937 425.629,703.338 428.772,610.574 431.915,533.817 435.058,547.356 438.201,468.144 441.344,467.276 444.487,424.289 447.63,567.698 450.772,417.6 453.915,527.946 457.058,518.058 460.201,581.999 463.344,712.715 466.487,769.934 469.63,422.51 472.773,619.135 475.916,704.633 479.058,541.487 482.201,503.458 485.344,548.839 488.487,635.326 491.63,1027.78 494.773,443.102 497.916,448.702 501.059,496.223 504.202,663.598 507.345,762.882 510.487,692.656 513.63,563.682 516.773,589.633 519.916,563.645 523.059,714.028 526.202,309.728 529.345,484.295 532.488,657.548 535.631,600.655 538.773,419.121 541.916,421.178 545.059,375.557 548.202,774.111 551.345,858.205 554.488,280.664 557.631,381.425 560.774,349.929 563.917,732.232 567.059,559.303 570.202,549.537 573.345,599.579 576.488,745.39 579.631,413.502 582.774,622.331 585.917,568.009 589.06,705.953 592.203,487.88 595.345,562.871 598.488,875.088 601.631,698.63 604.774,776.938 607.917,692.94 611.06,1005.75 614.203,1075.54 617.346,648.176 620.489,865.659 623.631,546.679 626.774,406.564 629.917,801.502 633.06,418.21 636.203,939.2 639.346,859.36 642.489,755.314 645.632,499.764 648.775,342.959 651.918,549.961 655.06,494.971 658.203,449.265 661.346,524.178 664.489,564.813 667.632,573.43 670.775,629.351 673.918,487.951 677.061,487.508 680.204,776.879 683.346,330.254 686.489,379.444 689.632,1171.89 692.775,1062.92 695.918,432.286 699.061,549.319 702.204,712.238 705.347,460.145 708.49,493.424 711.632,653.66 714.775,344.027 717.918,326.848 721.061,403.382 724.204,444.838 727.347,584.28 730.49,470.682 733.633,496.533 736.776,503.736 739.918,591.527 743.061,590.015 746.204,348.544 749.347,471.838 752.49,613.157 755.633,469.13 758.776,704.456 761.919,795.964 765.062,526.51 768.204,741.504 771.347,531.179 774.49,725.966 777.633,640.663 780.776,477.626 783.919,408.061 787.062,498.318 790.205,626.998 793.348,568.366 796.49,538.201 799.633,377.062 802.776,421.801 805.919,766.644 809.062,618.157 812.205,552.342 815.348,429.021 818.491,473.525 821.634,814.799 824.777,717.307 827.919,757.362 831.062,704.28 834.205,587.717 837.348,476.345 840.491,677.994 843.634,451.309 846.777,393.742 849.92,408.831 853.063,552.182 856.205,467.386 859.348,841.845 862.491,737.958 865.634,349.086 868.777,374.745 871.92,787.61 875.063,681.258 878.206,653.509 881.349,437.786 884.491,458.063 887.634,316.924 890.777,332.93 893.92,472.618 897.063,290.05 900.206,566.908 903.349,684.919 906.492,968.239 909.635,758.578 912.777,494.688 915.92,546.101 919.063,585.66 922.206,569.15 925.349,493.562 928.492,520.728 931.635,767.381 934.778,316.911 937.921,515.187 941.063,421.638 944.206,514.023 947.349,480.016 950.492,536.081 953.635,654.683 956.778,967.494 959.921,498.727 963.064,450.463 966.207,219.025 969.35,639.279 972.492,830.095 975.635,759.585 978.778,868.223 981.921,1046.08 985.064,610.115 988.207,763.937 991.35,354.754 994.493,341.706 997.636,953.471 1000.78,896.028 1003.92,783.495 1007.06,921.833 1010.21,554.722 1013.35,749.151 1016.49,337.736 1019.64,612.962 1022.78,517.844 1025.92,667.506 1029.06,456.603 1032.21,681.844 1035.35,647.217 1038.49,505.042 1041.64,663.046 1044.78,572.459 1047.92,529.636 1051.06,499.993 1054.21,263.487 1057.35,806.226 1060.49,678.039 1063.64,292.193 1066.78,539.082 1069.92,596.725 1073.06,309.47 1076.21,639.814 1079.35,916.958 1082.49,652.031 1085.64,769.958 1088.78,411.228 1091.92,500.912 1095.07,462.125 1098.21,576.316 1101.35,998.171 1104.49,674.328 1107.64,705.502 1110.78,981.973 1113.92,786.513 1117.07,634.719 1120.21,1146.48 1123.35,504.103 1126.49,484.356 1129.64,713.936 1132.78,475.279 1135.92,295.306 1139.07,537.774 1142.21,584.803 1145.35,513.568 1148.49,853.43 1151.64,924.606 1154.78,449.71 1157.92,587.372 1161.07,662.734 1164.21,559.971 1167.35,659.985 1170.49,666.393 1173.64,848.708 1176.78,617.139 1179.92,324.179 1183.07,468.287 1186.21,470.918 1189.35,477.876 1192.49,317.446 1195.64,423.759 1198.78,603.99 1201.92,809.404 1205.07,617.693 1208.21,741.166 1211.35,865.987 1214.5,666.965 1217.64,422.44 1220.78,577.894 1223.92,536.997 1227.07,527.735 1230.21,373.451 1233.35,429.047 1236.5,608.137 1239.64,895.515 1242.78,711.663 1245.92,837.713 1249.07,686.11 1252.21,228.512 1255.35,429.032 1258.5,499.658 1261.64,370.948 1264.78,396.272 1267.92,650.817 1271.07,525.986 1274.21,689.022 1277.35,490.706 1280.5,471.195 1283.64,496.617 1286.78,507.56 1289.92,565.741 1293.07,403.007 1296.21,940.737 1299.35,534.13 1302.5,661.471 1305.64,406.84 1308.78,555.224 1311.92,517.66 1315.07,505.882 1318.21,503.786 1321.35,338.849 1324.5,419.969 1327.64,409.978 1330.78,659.189 1333.92,666.197 1337.07,718.767 1340.21,608.211 1343.35,516.987 1346.5,437.808 1349.64,466.34 1352.78,595.058 1355.93,493.343 1359.07,664.272 1362.21,581.942 1365.35,1035.2 1368.5,840.326 1371.64,495.07 1374.78,852.848 1377.93,899.705 1381.07,479.462 1384.21,545.808 1387.35,572.923 1390.5,848.363 1393.64,779.69 1396.78,454.94 1399.93,798.497 1403.07,628.525 1406.21,652.113 1409.35,406.628 1412.5,443.74 1415.64,585.128 1418.78,684.669 1421.93,838.119 1425.07,483.333 1428.21,578.876 1431.35,1016.1 1434.5,567.698 1437.64,783.789 1440.78,714.29 1443.93,751.843 1447.07,681.244 1450.21,643.216 1453.35,559.068 1456.5,440.094 1459.64,473.968 1462.78,1141.56 1465.93,980.151 1469.07,511.916 1472.21,517.704 1475.35,611.366 1478.5,532.365 1481.64,468.997 1484.78,597.512 1487.93,458.306 1491.07,410.454 1494.21,584.108 1497.36,640.223 1500.5,647.376 1503.64,913.67 1506.78,1051.75 1509.93,679.772 1513.07,947.304 1516.21,1127.36 1519.36,1113.35 1522.5,850.7 1525.64,592.676 1528.78,870.482 1531.93,585.258 1535.07,540.739 1538.21,369.698 1541.36,568.793 1544.5,614.228 1547.64,573.635 1550.78,725.441 1553.93,830.205 1557.07,817.481 1560.21,558.323 1563.36,595.173 1566.5,776.967 1569.64,409.295 1572.78,782.221 1575.93,1020.8 1579.07,639.335 1582.21,734.607 1585.36,723.467 1588.5,654.411 1591.64,698.339 1594.78,623.09 1597.93,394.792 1601.07,488.944 1604.21,692.131 1607.36,550.495 1610.5,769.696 1613.64,701.569 1616.79,580.856 1619.93,548.899 1623.07,689.798 1626.21,502.516 1629.36,699.909 1632.5,590.312 1635.64,657.847 1638.79,552.46 1641.93,366.434 1645.07,565.895 1648.21,402.741 1651.36,349.676 1654.5,624.441 1657.64,551.105 1660.79,555.85 1663.93,394.831 1667.07,698.434 1670.21,447.931 1673.36,572.268 1676.5,525.329 1679.64,398.301 1682.79,509.348 1685.93,764.507 1689.07,623.306 1692.21,649.384 1695.36,817.677 1698.5,658.309 1701.64,373.537 1704.79,651.49 1707.93,505.013 1711.07,626.208 1714.21,562.794 1717.36,349.481 1720.5,380.273 1723.64,659.628 1726.79,307.404 1729.93,332.94 1733.07,998.275 1736.21,720.484 1739.36,391.643 1742.5,644.246 1745.64,941.62 1748.79,896.189 1751.93,1019.11 1755.07,946.489 1758.22,687.745 1761.36,807.784 1764.5,809.21 1767.64,447.917 1770.79,485.359 1773.93,686.098 1777.07,703.568 1780.22,779.047 1783.36,545.503 1786.5,634.511 1789.64,679.922 1792.79,601.83 1795.93,302.999 1799.07,325.016 1802.22,610.737 1805.36,916.62 1808.5,745.639 1811.64,608.354 1814.79,508.904 1817.93,468.274 1821.07,476.626 1824.22,555.442 1827.36,470.342 1830.5,544.116 1833.64,510.376 1836.79,582.57 1839.93,876.232 1843.07,598.649 1846.22,430.622 1849.36,505.67 1852.5,386.921 1855.64,477.779 1858.79,756.921 1861.93,710.723 1865.07,431.19 1868.22,467.301 1871.36,614.888 1874.5,480.623 1877.65,712.146 1880.79,708.991 1883.93,593.42 1887.07,610.853 1890.22,657.113 1893.36,452.917 1896.5,386.132 1899.65,561.658 1902.79,500.563 1905.93,311.976 1909.07,357.71 1912.22,579.596 1915.36,573.392 1918.5,523.999 1921.65,414.686 1924.79,553.983 1927.93,677.226 1931.07,633.832 1934.22,509.14 1937.36,760.396 1940.5,808.889 1943.65,725.245 1946.79,807.364 1949.93,743.816 1953.07,482.631 1956.22,443.594 1959.36,747.177 1962.5,796.619 1965.65,843.583 1968.79,804.263 1971.93,913.432 1975.07,488.568 1978.22,468.843 1981.36,554.769 1984.5,619.516 1987.65,735.209 1990.79,633.013 1993.93,312.314 1997.07,1082.43 2000.22,1388.11 2003.36,1052.07 2006.5,969.779 2009.65,872.807 2012.79,932.948 2015.93,643.797 2019.08,566.3 2022.22,500.547 2025.36,769.108 2028.5,1120.15 2031.65,584.618 2034.79,475.442 2037.93,763.274 2041.08,615.055 2044.22,564.825 2047.36,669.736 2050.5,773.552 2053.65,627.807 2056.79,526.609 2059.93,519.505 2063.08,414.941 2066.22,647.351 2069.36,358.338 2072.5,376.1 2075.65,451.205 2078.79,604.804 2081.93,440.145 2085.08,571.585 2088.22,706.465 2091.36,387.657 2094.5,587.053 2097.65,827.707 2100.79,349.899 2103.93,366.687 2107.08,385.321 2110.22,570.82 2113.36,706.253 2116.5,455.253 2119.65,554.416 2122.79,638.211 2125.93,705.731 2129.08,417.55 2132.22,629.033 2135.36,714.858 2138.51,599.386 2141.65,590.337 2144.79,640.053 2147.93,606.689 2151.08,453.188 2154.22,430.647 2157.36,889.428 2160.51,300.097 2163.65,812.299 2166.79,632.008 2169.93,1124.14 2173.08,391.756 2176.22,317.02 2179.36,667.516 2182.51,849.934 2185.65,524.74 2188.79,533.267 2191.93,438.616 2195.08,564.609 2198.22,427.331 2201.36,437.134 2204.51,666.19 2207.65,666.376 2210.79,630.556 2213.93,452.63 2217.08,328.932 2220.22,672.134 2223.36,659.661 2226.51,856.384 2229.65,642.215 2232.79,352.315 2235.93,446.046 2239.08,594.082 2242.22,544.029 2245.36,485.873 2248.51,268.585 2251.65,454.168 2254.79,395.957 2257.93,899.803 2261.08,872.669 2264.22,553.105 2267.36,542.3 2270.51,721.583 2273.65,546.618 2276.79,530.98 2279.94,422.096 2283.08,324.206 2286.22,852.004 2289.36,703.891 2292.51,462.929 "></polyline>
</svg>