<svg xmlns="http://www.w3.org/2000/svg" xmlns:xlink="http://www.w3.org/1999/xlink" width="600" height="400" viewBox="0 0 2400 1600">
<defs>
  <clipPath id="clip850">
    <rect x="0" y="0" width="2400" height="1600"></rect>
  </clipPath>
</defs>
<path clip-path="url(#clip850)" d="M0 1600 L2400 1600 L2400 0 L0 0  Z" fill="#ffffff" fill-rule="evenodd" fill-opacity="1"></path>
<defs>
  <clipPath id="clip851">
    <rect x="480" y="0" width="1681" height="1600"></rect>
  </clipPath>
</defs>
<path clip-path="url(#clip850)" d="M112.177 1423.18 L2352.76 1423.18 L2352.76 123.472 L112.177 123.472  Z" fill="#ffffff" fill-rule="evenodd" fill-opacity="1"></path>
<defs>
  <clipPath id="clip852">
    <rect x="112" y="123" width="2242" height="1301"></rect>
  </clipPath>
</defs>
<polyline clip-path="url(#clip852)" style="stroke:#000000; stroke-linecap:round; stroke-linejoin:round; stroke-width:2; stroke-opacity:0.1; fill:none" points="172.282,1423.18 172.282,123.472 "></polyline>
<polyline clip-path="url(#clip852)" style="stroke:#000000; stroke-linecap:round; stroke-linejoin:round; stroke-width:2; stroke-opacity:0.1; fill:none" points="503.073,1423.18 503.073,123.472 "></polyline>
<polyline clip-path="url(#clip852)" style="stroke:#000000; stroke-linecap:round; stroke-linejoin:round; stroke-width:2; stroke-opacity:0.1; fill:none" points="833.864,1423.18 833.864,123.472 "></polyline>
<polyline clip-path="url(#clip852)" style="stroke:#000000; stroke-linecap:round; stroke-linejoin:round; stroke-width:2; stroke-opacity:0.1; fill:none" points="1164.65,1423.18 1164.65,123.472 "></polyline>
<polyline clip-path="url(#clip852)" style="stroke:#000000; stroke-linecap:round; stroke-linejoin:round; stroke-width:2; stroke-opacity:0.1; fill:none" points="1495.45,1423.18 1495.45,123.472 "></polyline>
<polyline clip-path="url(#clip852)" style="stroke:#000000; stroke-linecap:round; stroke-linejoin:round; stroke-width:2; stroke-opacity:0.1; fill:none" points="1826.24,1423.18 1826.24,123.472 "></polyline>
<polyline clip-path="url(#clip852)" style="stroke:#000000; stroke-linecap:round; stroke-linejoin:round; stroke-width:2; stroke-opacity:0.1; fill:none" points="2157.03,1423.18 2157.03,123.472 "></polyline>
<polyline clip-path="url(#clip852)" style="stroke:#000000; stroke-linecap:round; stroke-linejoin:round; stroke-width:2; stroke-opacity:0.1; fill:none" points="112.177,1390.03 2352.76,1390.03 "></polyline>
<polyline clip-path="url(#clip852)" style="stroke:#000000; stroke-linecap:round; stroke-linejoin:round; stroke-width:2; stroke-opacity:0.1; fill:none" points="112.177,1134.95 2352.76,1134.95 "></polyline>
<polyline clip-path="url(#clip852)" style="stroke:#000000; stroke-linecap:round; stroke-linejoin:round; stroke-width:2; stroke-opacity:0.1; fill:none" points="112.177,879.878 2352.76,879.878 "></polyline>
<polyline clip-path="url(#clip852)" style="stroke:#000000; stroke-linecap:round; stroke-linejoin:round; stroke-width:2; stroke-opacity:0.1; fill:none" points="112.177,624.802 2352.76,624.802 "></polyline>
<polyline clip-path="url(#clip852)" style="stroke:#000000; stroke-linecap:round; stroke-linejoin:round; stroke-width:2; stroke-opacity:0.1; fill:none" points="112.177,369.726 2352.76,369.726 "></polyline>
<polyline clip-path="url(#clip850)" style="stroke:#000000; stroke-linecap:round; stroke-linejoin:round; stroke-width:4; stroke-opacity:1; fill:none" points="112.177,1423.18 2352.76,1423.18 "></polyline>
<polyline clip-path="url(#clip850)" style="stroke:#000000; stroke-linecap:round; stroke-linejoin:round; stroke-width:4; stroke-opacity:1; fill:none" points="172.282,1423.18 172.282,1404.28 "></polyline>
<polyline clip-path="url(#clip850)" style="stroke:#000000; stroke-linecap:round; stroke-linejoin:round; stroke-width:4; stroke-opacity:1; fill:none" points="503.073,1423.18 503.073,1404.28 "></polyline>
<polyline clip-path="url(#clip850)" style="stroke:#000000; stroke-linecap:round; stroke-linejoin:round; stroke-width:4; stroke-opacity:1; fill:none" points="833.864,1423.18 833.864,1404.28 "></polyline>
<polyline clip-path="url(#clip850)" style="stroke:#000000; stroke-linecap:round; stroke-linejoin:round; stroke-width:4; stroke-opacity:1; fill:none" points="1164.65,1423.18 1164.65,1404.28 "></polyline>
<polyline clip-path="url(#clip850)" style="stroke:#000000; stroke-linecap:round; stroke-linejoin:round; stroke-width:4; stroke-opacity:1; fill:none" points="1495.45,1423.18 1495.45,1404.28 "></polyline>
<polyline clip-path="url(#clip850)" style="stroke:#000000; stroke-linecap:round; stroke-linejoin:round; stroke-width:4; stroke-opacity:1; fill:none" points="1826.24,1423.18 1826.24,1404.28 "></polyline>
<polyline clip-path="url(#clip850)" style="stroke:#000000; stroke-linecap:round; stroke-linejoin:round; stroke-width:4; stroke-opacity:1; fill:none" points="2157.03,1423.18 2157.03,1404.28 "></polyline>
<path clip-path="url(#clip850)" d="M172.282 1454.1 Q168.671 1454.1 166.842 1457.66 Q165.037 1461.2 165.037 1468.33 Q165.037 1475.44 166.842 1479.01 Q168.671 1482.55 172.282 1482.55 Q175.916 1482.55 177.722 1479.01 Q179.55 1475.44 179.55 1468.33 Q179.55 1461.2 177.722 1457.66 Q175.916 1454.1 172.282 1454.1 M172.282 1450.39 Q178.092 1450.39 181.148 1455 Q184.226 1459.58 184.226 1468.33 Q184.226 1477.06 181.148 1481.67 Q178.092 1486.25 172.282 1486.25 Q166.472 1486.25 163.393 1481.67 Q160.337 1477.06 160.337 1468.33 Q160.337 1459.58 163.393 1455 Q166.472 1450.39 172.282 1450.39 Z" fill="#000000" fill-rule="nonzero" fill-opacity="1"></path><path clip-path="url(#clip850)" d="M462.679 1481.64 L470.318 1481.64 L470.318 1455.28 L462.008 1456.95 L462.008 1452.69 L470.272 1451.02 L474.948 1451.02 L474.948 1481.64 L482.587 1481.64 L482.587 1485.58 L462.679 1485.58 L462.679 1481.64 Z" fill="#000000" fill-rule="nonzero" fill-opacity="1"></path><path clip-path="url(#clip850)" d="M502.031 1454.1 Q498.42 1454.1 496.591 1457.66 Q494.786 1461.2 494.786 1468.33 Q494.786 1475.44 496.591 1479.01 Q498.42 1482.55 502.031 1482.55 Q505.665 1482.55 507.471 1479.01 Q509.3 1475.44 509.3 1468.33 Q509.3 1461.2 507.471 1457.66 Q505.665 1454.1 502.031 1454.1 M502.031 1450.39 Q507.841 1450.39 510.897 1455 Q513.975 1459.58 513.975 1468.33 Q513.975 1477.06 510.897 1481.67 Q507.841 1486.25 502.031 1486.25 Q496.221 1486.25 493.142 1481.67 Q490.087 1477.06 490.087 1468.33 Q490.087 1459.58 493.142 1455 Q496.221 1450.39 502.031 1450.39 Z" fill="#000000" fill-rule="nonzero" fill-opacity="1"></path><path clip-path="url(#clip850)" d="M532.193 1454.1 Q528.582 1454.1 526.753 1457.66 Q524.948 1461.2 524.948 1468.33 Q524.948 1475.44 526.753 1479.01 Q528.582 1482.55 532.193 1482.55 Q535.827 1482.55 537.633 1479.01 Q539.461 1475.44 539.461 1468.33 Q539.461 1461.2 537.633 1457.66 Q535.827 1454.1 532.193 1454.1 M532.193 1450.39 Q538.003 1450.39 541.059 1455 Q544.137 1459.58 544.137 1468.33 Q544.137 1477.06 541.059 1481.67 Q538.003 1486.25 532.193 1486.25 Q526.383 1486.25 523.304 1481.67 Q520.249 1477.06 520.249 1468.33 Q520.249 1459.58 523.304 1455 Q526.383 1450.39 532.193 1450.39 Z" fill="#000000" fill-rule="nonzero" fill-opacity="1"></path><path clip-path="url(#clip850)" d="M797.556 1481.64 L813.875 1481.64 L813.875 1485.58 L791.931 1485.58 L791.931 1481.64 Q794.593 1478.89 799.176 1474.26 Q803.783 1469.61 804.963 1468.27 Q807.209 1465.74 808.088 1464.01 Q808.991 1462.25 808.991 1460.56 Q808.991 1457.8 807.047 1456.07 Q805.125 1454.33 802.023 1454.33 Q799.824 1454.33 797.371 1455.09 Q794.94 1455.86 792.162 1457.41 L792.162 1452.69 Q794.986 1451.55 797.44 1450.97 Q799.894 1450.39 801.931 1450.39 Q807.301 1450.39 810.496 1453.08 Q813.69 1455.77 813.69 1460.26 Q813.69 1462.39 812.88 1464.31 Q812.093 1466.2 809.986 1468.8 Q809.408 1469.47 806.306 1472.69 Q803.204 1475.88 797.556 1481.64 Z" fill="#000000" fill-rule="nonzero" fill-opacity="1"></path><path clip-path="url(#clip850)" d="M833.69 1454.1 Q830.079 1454.1 828.25 1457.66 Q826.445 1461.2 826.445 1468.33 Q826.445 1475.44 828.25 1479.01 Q830.079 1482.55 833.69 1482.55 Q837.324 1482.55 839.13 1479.01 Q840.958 1475.44 840.958 1468.33 Q840.958 1461.2 839.13 1457.66 Q837.324 1454.1 833.69 1454.1 M833.69 1450.39 Q839.5 1450.39 842.556 1455 Q845.634 1459.58 845.634 1468.33 Q845.634 1477.06 842.556 1481.67 Q839.5 1486.25 833.69 1486.25 Q827.88 1486.25 824.801 1481.67 Q821.746 1477.06 821.746 1468.33 Q821.746 1459.58 824.801 1455 Q827.88 1450.39 833.69 1450.39 Z" fill="#000000" fill-rule="nonzero" fill-opacity="1"></path><path clip-path="url(#clip850)" d="M863.852 1454.1 Q860.241 1454.1 858.412 1457.66 Q856.607 1461.2 856.607 1468.33 Q856.607 1475.44 858.412 1479.01 Q860.241 1482.55 863.852 1482.55 Q867.486 1482.55 869.292 1479.01 Q871.12 1475.44 871.12 1468.33 Q871.12 1461.2 869.292 1457.66 Q867.486 1454.1 863.852 1454.1 M863.852 1450.39 Q869.662 1450.39 872.718 1455 Q875.796 1459.58 875.796 1468.33 Q875.796 1477.06 872.718 1481.67 Q869.662 1486.25 863.852 1486.25 Q858.042 1486.25 854.963 1481.67 Q851.907 1477.06 851.907 1468.33 Q851.907 1459.58 854.963 1455 Q858.042 1450.39 863.852 1450.39 Z" fill="#000000" fill-rule="nonzero" fill-opacity="1"></path><path clip-path="url(#clip850)" d="M1138.42 1466.95 Q1141.77 1467.66 1143.65 1469.93 Q1145.55 1472.2 1145.55 1475.53 Q1145.55 1480.65 1142.03 1483.45 Q1138.51 1486.25 1132.03 1486.25 Q1129.85 1486.25 1127.54 1485.81 Q1125.24 1485.39 1122.79 1484.54 L1122.79 1480.02 Q1124.74 1481.16 1127.05 1481.74 Q1129.37 1482.32 1131.89 1482.32 Q1136.29 1482.32 1138.58 1480.58 Q1140.89 1478.84 1140.89 1475.53 Q1140.89 1472.48 1138.74 1470.77 Q1136.61 1469.03 1132.79 1469.03 L1128.76 1469.03 L1128.76 1465.19 L1132.98 1465.19 Q1136.43 1465.19 1138.25 1463.82 Q1140.08 1462.43 1140.08 1459.84 Q1140.08 1457.18 1138.18 1455.77 Q1136.31 1454.33 1132.79 1454.33 Q1130.87 1454.33 1128.67 1454.75 Q1126.47 1455.16 1123.83 1456.04 L1123.83 1451.88 Q1126.49 1451.14 1128.81 1450.77 Q1131.15 1450.39 1133.21 1450.39 Q1138.53 1450.39 1141.63 1452.83 Q1144.74 1455.23 1144.74 1459.35 Q1144.74 1462.22 1143.09 1464.21 Q1141.45 1466.18 1138.42 1466.95 Z" fill="#000000" fill-rule="nonzero" fill-opacity="1"></path><path clip-path="url(#clip850)" d="M1164.41 1454.1 Q1160.8 1454.1 1158.97 1457.66 Q1157.17 1461.2 1157.17 1468.33 Q1157.17 1475.44 1158.97 1479.01 Q1160.8 1482.55 1164.41 1482.55 Q1168.05 1482.55 1169.85 1479.01 Q1171.68 1475.44 1171.68 1468.33 Q1171.68 1461.2 1169.85 1457.66 Q1168.05 1454.1 1164.41 1454.1 M1164.41 1450.39 Q1170.22 1450.39 1173.28 1455 Q1176.36 1459.58 1176.36 1468.33 Q1176.36 1477.06 1173.28 1481.67 Q1170.22 1486.25 1164.41 1486.25 Q1158.6 1486.25 1155.52 1481.67 Q1152.47 1477.06 1152.47 1468.33 Q1152.47 1459.58 1155.52 1455 Q1158.6 1450.39 1164.41 1450.39 Z" fill="#000000" fill-rule="nonzero" fill-opacity="1"></path><path clip-path="url(#clip850)" d="M1194.57 1454.1 Q1190.96 1454.1 1189.13 1457.66 Q1187.33 1461.2 1187.33 1468.33 Q1187.33 1475.44 1189.13 1479.01 Q1190.96 1482.55 1194.57 1482.55 Q1198.21 1482.55 1200.01 1479.01 Q1201.84 1475.44 1201.84 1468.33 Q1201.84 1461.2 1200.01 1457.66 Q1198.21 1454.1 1194.57 1454.1 M1194.57 1450.39 Q1200.38 1450.39 1203.44 1455 Q1206.52 1459.58 1206.52 1468.33 Q1206.52 1477.06 1203.44 1481.67 Q1200.38 1486.25 1194.57 1486.25 Q1188.76 1486.25 1185.68 1481.67 Q1182.63 1477.06 1182.63 1468.33 Q1182.63 1459.58 1185.68 1455 Q1188.76 1450.39 1194.57 1450.39 Z" fill="#000000" fill-rule="nonzero" fill-opacity="1"></path><path clip-path="url(#clip850)" d="M1468.54 1455.09 L1456.73 1473.54 L1468.54 1473.54 L1468.54 1455.09 M1467.31 1451.02 L1473.19 1451.02 L1473.19 1473.54 L1478.12 1473.54 L1478.12 1477.43 L1473.19 1477.43 L1473.19 1485.58 L1468.54 1485.58 L1468.54 1477.43 L1452.93 1477.43 L1452.93 1472.92 L1467.31 1451.02 Z" fill="#000000" fill-rule="nonzero" fill-opacity="1"></path><path clip-path="url(#clip850)" d="M1495.85 1454.1 Q1492.24 1454.1 1490.41 1457.66 Q1488.61 1461.2 1488.61 1468.33 Q1488.61 1475.44 1490.41 1479.01 Q1492.24 1482.55 1495.85 1482.55 Q1499.48 1482.55 1501.29 1479.01 Q1503.12 1475.44 1503.12 1468.33 Q1503.12 1461.2 1501.29 1457.66 Q1499.48 1454.1 1495.85 1454.1 M1495.85 1450.39 Q1501.66 1450.39 1504.72 1455 Q1507.79 1459.58 1507.79 1468.33 Q1507.79 1477.06 1504.72 1481.67 Q1501.66 1486.25 1495.85 1486.25 Q1490.04 1486.25 1486.96 1481.67 Q1483.91 1477.06 1483.91 1468.33 Q1483.91 1459.58 1486.96 1455 Q1490.04 1450.39 1495.85 1450.39 Z" fill="#000000" fill-rule="nonzero" fill-opacity="1"></path><path clip-path="url(#clip850)" d="M1526.01 1454.1 Q1522.4 1454.1 1520.57 1457.66 Q1518.77 1461.2 1518.77 1468.33 Q1518.77 1475.44 1520.57 1479.01 Q1522.4 1482.55 1526.01 1482.55 Q1529.65 1482.55 1531.45 1479.01 Q1533.28 1475.44 1533.28 1468.33 Q1533.28 1461.2 1531.45 1457.66 Q1529.65 1454.1 1526.01 1454.1 M1526.01 1450.39 Q1531.82 1450.39 1534.88 1455 Q1537.96 1459.58 1537.96 1468.33 Q1537.96 1477.06 1534.88 1481.67 Q1531.82 1486.25 1526.01 1486.25 Q1520.2 1486.25 1517.12 1481.67 Q1514.07 1477.06 1514.07 1468.33 Q1514.07 1459.58 1517.12 1455 Q1520.2 1450.39 1526.01 1450.39 Z" fill="#000000" fill-rule="nonzero" fill-opacity="1"></path><path clip-path="url(#clip850)" d="M1785.85 1451.02 L1804.21 1451.02 L1804.21 1454.96 L1790.14 1454.96 L1790.14 1463.43 Q1791.16 1463.08 1792.17 1462.92 Q1793.19 1462.73 1794.21 1462.73 Q1800 1462.73 1803.38 1465.9 Q1806.76 1469.08 1806.76 1474.49 Q1806.76 1480.07 1803.28 1483.17 Q1799.81 1486.25 1793.49 1486.25 Q1791.32 1486.25 1789.05 1485.88 Q1786.8 1485.51 1784.4 1484.77 L1784.4 1480.07 Q1786.48 1481.2 1788.7 1481.76 Q1790.92 1482.32 1793.4 1482.32 Q1797.41 1482.32 1799.74 1480.21 Q1802.08 1478.1 1802.08 1474.49 Q1802.08 1470.88 1799.74 1468.77 Q1797.41 1466.67 1793.4 1466.67 Q1791.53 1466.67 1789.65 1467.08 Q1787.8 1467.5 1785.85 1468.38 L1785.85 1451.02 Z" fill="#000000" fill-rule="nonzero" fill-opacity="1"></path><path clip-path="url(#clip850)" d="M1825.97 1454.1 Q1822.36 1454.1 1820.53 1457.66 Q1818.72 1461.2 1818.72 1468.33 Q1818.72 1475.44 1820.53 1479.01 Q1822.36 1482.55 1825.97 1482.55 Q1829.6 1482.55 1831.41 1479.01 Q1833.24 1475.44 1833.24 1468.33 Q1833.24 1461.2 1831.41 1457.66 Q1829.6 1454.1 1825.97 1454.1 M1825.97 1450.39 Q1831.78 1450.39 1834.84 1455 Q1837.91 1459.58 1837.91 1468.33 Q1837.91 1477.06 1834.84 1481.67 Q1831.78 1486.25 1825.97 1486.25 Q1820.16 1486.25 1817.08 1481.67 Q1814.03 1477.06 1814.03 1468.33 Q1814.03 1459.58 1817.08 1455 Q1820.16 1450.39 1825.97 1450.39 Z" fill="#000000" fill-rule="nonzero" fill-opacity="1"></path><path clip-path="url(#clip850)" d="M1856.13 1454.1 Q1852.52 1454.1 1850.69 1457.66 Q1848.89 1461.2 1848.89 1468.33 Q1848.89 1475.44 1850.69 1479.01 Q1852.52 1482.55 1856.13 1482.55 Q1859.77 1482.55 1861.57 1479.01 Q1863.4 1475.44 1863.4 1468.33 Q1863.4 1461.2 1861.57 1457.66 Q1859.77 1454.1 1856.13 1454.1 M1856.13 1450.39 Q1861.94 1450.39 1865 1455 Q1868.08 1459.58 1868.08 1468.33 Q1868.08 1477.06 1865 1481.67 Q1861.94 1486.25 1856.13 1486.25 Q1850.32 1486.25 1847.24 1481.67 Q1844.19 1477.06 1844.19 1468.33 Q1844.19 1459.58 1847.24 1455 Q1850.32 1450.39 1856.13 1450.39 Z" fill="#000000" fill-rule="nonzero" fill-opacity="1"></path><path clip-path="url(#clip850)" d="M2127.35 1466.44 Q2124.2 1466.44 2122.35 1468.59 Q2120.52 1470.74 2120.52 1474.49 Q2120.52 1478.22 2122.35 1480.39 Q2124.2 1482.55 2127.35 1482.55 Q2130.5 1482.55 2132.33 1480.39 Q2134.18 1478.22 2134.18 1474.49 Q2134.18 1470.74 2132.33 1468.59 Q2130.5 1466.44 2127.35 1466.44 M2136.63 1451.78 L2136.63 1456.04 Q2134.87 1455.21 2133.07 1454.77 Q2131.29 1454.33 2129.53 1454.33 Q2124.9 1454.33 2122.44 1457.45 Q2120.01 1460.58 2119.67 1466.9 Q2121.03 1464.89 2123.09 1463.82 Q2125.15 1462.73 2127.63 1462.73 Q2132.84 1462.73 2135.85 1465.9 Q2138.88 1469.05 2138.88 1474.49 Q2138.88 1479.82 2135.73 1483.03 Q2132.58 1486.25 2127.35 1486.25 Q2121.36 1486.25 2118.18 1481.67 Q2115.01 1477.06 2115.01 1468.33 Q2115.01 1460.14 2118.9 1455.28 Q2122.79 1450.39 2129.34 1450.39 Q2131.1 1450.39 2132.88 1450.74 Q2134.69 1451.09 2136.63 1451.78 Z" fill="#000000" fill-rule="nonzero" fill-opacity="1"></path><path clip-path="url(#clip850)" d="M2156.93 1454.1 Q2153.32 1454.1 2151.49 1457.66 Q2149.69 1461.2 2149.69 1468.33 Q2149.69 1475.44 2151.49 1479.01 Q2153.32 1482.55 2156.93 1482.55 Q2160.57 1482.55 2162.37 1479.01 Q2164.2 1475.44 2164.2 1468.33 Q2164.2 1461.2 2162.37 1457.66 Q2160.57 1454.1 2156.93 1454.1 M2156.93 1450.39 Q2162.74 1450.39 2165.8 1455 Q2168.88 1459.58 2168.88 1468.33 Q2168.88 1477.06 2165.8 1481.67 Q2162.74 1486.25 2156.93 1486.25 Q2151.12 1486.25 2148.05 1481.67 Q2144.99 1477.06 2144.99 1468.33 Q2144.99 1459.58 2148.05 1455 Q2151.12 1450.39 2156.93 1450.39 Z" fill="#000000" fill-rule="nonzero" fill-opacity="1"></path><path clip-path="url(#clip850)" d="M2187.1 1454.1 Q2183.49 1454.1 2181.66 1457.66 Q2179.85 1461.2 2179.85 1468.33 Q2179.85 1475.44 2181.66 1479.01 Q2183.49 1482.55 2187.1 1482.55 Q2190.73 1482.55 2192.54 1479.01 Q2194.36 1475.44 2194.36 1468.33 Q2194.36 1461.2 2192.54 1457.66 Q2190.73 1454.1 2187.1 1454.1 M2187.1 1450.39 Q2192.91 1450.39 2195.96 1455 Q2199.04 1459.58 2199.04 1468.33 Q2199.04 1477.06 2195.96 1481.67 Q2192.91 1486.25 2187.1 1486.25 Q2181.29 1486.25 2178.21 1481.67 Q2175.15 1477.06 2175.15 1468.33 Q2175.15 1459.58 2178.21 1455 Q2181.29 1450.39 2187.1 1450.39 Z" fill="#000000" fill-rule="nonzero" fill-opacity="1"></path><path clip-path="url(#clip850)" d="M1192.78 1522.08 L1192.78 1528.35 Q1189.12 1526.6 1185.87 1525.74 Q1182.62 1524.88 1179.6 1524.88 Q1174.35 1524.88 1171.48 1526.92 Q1168.65 1528.96 1168.65 1532.71 Q1168.65 1535.87 1170.53 1537.49 Q1172.44 1539.08 1177.72 1540.07 L1181.6 1540.86 Q1188.8 1542.23 1192.2 1545.7 Q1195.64 1549.14 1195.64 1554.93 Q1195.64 1561.84 1190.99 1565.4 Q1186.38 1568.97 1177.44 1568.97 Q1174.06 1568.97 1170.24 1568.2 Q1166.45 1567.44 1162.38 1565.94 L1162.38 1559.32 Q1166.3 1561.52 1170.05 1562.63 Q1173.81 1563.75 1177.44 1563.75 Q1182.94 1563.75 1185.93 1561.58 Q1188.93 1559.42 1188.93 1555.41 Q1188.93 1551.91 1186.76 1549.93 Q1184.63 1547.96 1179.73 1546.97 L1175.81 1546.21 Q1168.62 1544.78 1165.4 1541.72 Q1162.19 1538.67 1162.19 1533.22 Q1162.19 1526.92 1166.61 1523.29 Q1171.07 1519.66 1178.87 1519.66 Q1182.21 1519.66 1185.68 1520.27 Q1189.15 1520.87 1192.78 1522.08 Z" fill="#000000" fill-rule="nonzero" fill-opacity="1"></path><path clip-path="url(#clip850)" d="M1211.21 1522.27 L1211.21 1532.4 L1223.27 1532.4 L1223.27 1536.95 L1211.21 1536.95 L1211.21 1556.3 Q1211.21 1560.66 1212.38 1561.9 Q1213.59 1563.14 1217.25 1563.14 L1223.27 1563.14 L1223.27 1568.04 L1217.25 1568.04 Q1210.47 1568.04 1207.89 1565.53 Q1205.32 1562.98 1205.32 1556.3 L1205.32 1536.95 L1201.02 1536.95 L1201.02 1532.4 L1205.32 1532.4 L1205.32 1522.27 L1211.21 1522.27 Z" fill="#000000" fill-rule="nonzero" fill-opacity="1"></path><path clip-path="url(#clip850)" d="M1261.46 1548.76 L1261.46 1551.62 L1234.54 1551.62 Q1234.92 1557.67 1238.16 1560.85 Q1241.44 1564 1247.27 1564 Q1250.64 1564 1253.79 1563.17 Q1256.97 1562.35 1260.09 1560.69 L1260.09 1566.23 Q1256.94 1567.57 1253.63 1568.27 Q1250.32 1568.97 1246.92 1568.97 Q1238.39 1568.97 1233.39 1564 Q1228.42 1559.04 1228.42 1550.57 Q1228.42 1541.82 1233.13 1536.69 Q1237.88 1531.54 1245.9 1531.54 Q1253.09 1531.54 1257.26 1536.18 Q1261.46 1540.8 1261.46 1548.76 M1255.61 1547.04 Q1255.54 1542.23 1252.9 1539.37 Q1250.29 1536.5 1245.96 1536.5 Q1241.06 1536.5 1238.1 1539.27 Q1235.17 1542.04 1234.73 1547.07 L1255.61 1547.04 Z" fill="#000000" fill-rule="nonzero" fill-opacity="1"></path><path clip-path="url(#clip850)" d="M1276.74 1562.7 L1276.74 1581.6 L1270.85 1581.6 L1270.85 1532.4 L1276.74 1532.4 L1276.74 1537.81 Q1278.59 1534.62 1281.39 1533.1 Q1284.22 1531.54 1288.13 1531.54 Q1294.63 1531.54 1298.67 1536.69 Q1302.74 1541.85 1302.74 1550.25 Q1302.74 1558.65 1298.67 1563.81 Q1294.63 1568.97 1288.13 1568.97 Q1284.22 1568.97 1281.39 1567.44 Q1278.59 1565.88 1276.74 1562.7 M1296.66 1550.25 Q1296.66 1543.79 1293.99 1540.13 Q1291.35 1536.44 1286.7 1536.44 Q1282.06 1536.44 1279.38 1540.13 Q1276.74 1543.79 1276.74 1550.25 Q1276.74 1556.71 1279.38 1560.4 Q1282.06 1564.07 1286.7 1564.07 Q1291.35 1564.07 1293.99 1560.4 Q1296.66 1556.71 1296.66 1550.25 Z" fill="#000000" fill-rule="nonzero" fill-opacity="1"></path><polyline clip-path="url(#clip850)" style="stroke:#000000; stroke-linecap:round; stroke-linejoin:round; stroke-width:4; stroke-opacity:1; fill:none" points="112.177,1423.18 112.177,123.472 "></polyline>
<polyline clip-path="url(#clip850)" style="stroke:#000000; stroke-linecap:round; stroke-linejoin:round; stroke-width:4; stroke-opacity:1; fill:none" points="112.177,1390.03 131.075,1390.03 "></polyline>
<polyline clip-path="url(#clip850)" style="stroke:#000000; stroke-linecap:round; stroke-linejoin:round; stroke-width:4; stroke-opacity:1; fill:none" points="112.177,1134.95 131.075,1134.95 "></polyline>
<polyline clip-path="url(#clip850)" style="stroke:#000000; stroke-linecap:round; stroke-linejoin:round; stroke-width:4; stroke-opacity:1; fill:none" points="112.177,879.878 131.075,879.878 "></polyline>
<polyline clip-path="url(#clip850)" style="stroke:#000000; stroke-linecap:round; stroke-linejoin:round; stroke-width:4; stroke-opacity:1; fill:none" points="112.177,624.802 131.075,624.802 "></polyline>
<polyline clip-path="url(#clip850)" style="stroke:#000000; stroke-linecap:round; stroke-linejoin:round; stroke-width:4; stroke-opacity:1; fill:none" points="112.177,369.726 131.075,369.726 "></polyline>
<path clip-path="url(#clip850)" d="M64.2328 1375.83 Q60.6217 1375.83 58.793 1379.39 Q56.9875 1382.94 56.9875 1390.07 Q56.9875 1397.17 58.793 1400.74 Q60.6217 1404.28 64.2328 1404.28 Q67.867 1404.28 69.6726 1400.74 Q71.5013 1397.17 71.5013 1390.07 Q71.5013 1382.94 69.6726 1379.39 Q67.867 1375.83 64.2328 1375.83 M64.2328 1372.13 Q70.0429 1372.13 73.0985 1376.73 Q76.1772 1381.32 76.1772 1390.07 Q76.1772 1398.79 73.0985 1403.4 Q70.0429 1407.98 64.2328 1407.98 Q58.4226 1407.98 55.344 1403.4 Q52.2884 1398.79 52.2884 1390.07 Q52.2884 1381.32 55.344 1376.73 Q58.4226 1372.13 64.2328 1372.13 Z" fill="#000000" fill-rule="nonzero" fill-opacity="1"></path><path clip-path="url(#clip850)" d="M56.2699 1148.3 L63.9087 1148.3 L63.9087 1121.93 L55.5986 1123.6 L55.5986 1119.34 L63.8624 1117.67 L68.5383 1117.67 L68.5383 1148.3 L76.1772 1148.3 L76.1772 1152.23 L56.2699 1152.23 L56.2699 1148.3 Z" fill="#000000" fill-rule="nonzero" fill-opacity="1"></path><path clip-path="url(#clip850)" d="M59.8578 893.223 L76.1772 893.223 L76.1772 897.158 L54.2328 897.158 L54.2328 893.223 Q56.8949 890.469 61.4782 885.839 Q66.0846 881.186 67.2652 879.844 Q69.5105 877.321 70.3902 875.585 Q71.2929 873.825 71.2929 872.135 Q71.2929 869.381 69.3485 867.645 Q67.4272 865.909 64.3254 865.909 Q62.1263 865.909 59.6726 866.673 Q57.2421 867.436 54.4643 868.987 L54.4643 864.265 Q57.2884 863.131 59.7421 862.552 Q62.1958 861.973 64.2328 861.973 Q69.6031 861.973 72.7976 864.659 Q75.992 867.344 75.992 871.835 Q75.992 873.964 75.1818 875.885 Q74.3948 877.784 72.2883 880.376 Q71.7096 881.047 68.6078 884.265 Q65.5059 887.459 59.8578 893.223 Z" fill="#000000" fill-rule="nonzero" fill-opacity="1"></path><path clip-path="url(#clip850)" d="M69.0476 623.448 Q72.404 624.166 74.279 626.434 Q76.1772 628.703 76.1772 632.036 Q76.1772 637.152 72.6587 639.952 Q69.1402 642.753 62.6587 642.753 Q60.4828 642.753 58.168 642.314 Q55.8764 641.897 53.4227 641.04 L53.4227 636.527 Q55.3671 637.661 57.6819 638.24 Q59.9967 638.818 62.5198 638.818 Q66.918 638.818 69.2096 637.082 Q71.5244 635.346 71.5244 632.036 Q71.5244 628.98 69.3717 627.267 Q67.242 625.531 63.4226 625.531 L59.3949 625.531 L59.3949 621.689 L63.6078 621.689 Q67.0569 621.689 68.8855 620.323 Q70.7142 618.934 70.7142 616.342 Q70.7142 613.679 68.8161 612.267 Q66.9411 610.832 63.4226 610.832 Q61.5013 610.832 59.3023 611.249 Q57.1032 611.666 54.4643 612.545 L54.4643 608.379 Q57.1264 607.638 59.4412 607.267 Q61.7791 606.897 63.8393 606.897 Q69.1633 606.897 72.2652 609.328 Q75.367 611.735 75.367 615.855 Q75.367 618.726 73.7235 620.716 Q72.08 622.684 69.0476 623.448 Z" fill="#000000" fill-rule="nonzero" fill-opacity="1"></path><path clip-path="url(#clip850)" d="M66.5939 356.52 L54.7884 374.969 L66.5939 374.969 L66.5939 356.52 M65.367 352.446 L71.2466 352.446 L71.2466 374.969 L76.1772 374.969 L76.1772 378.858 L71.2466 378.858 L71.2466 387.006 L66.5939 387.006 L66.5939 378.858 L50.9921 378.858 L50.9921 374.344 L65.367 352.446 Z" fill="#000000" fill-rule="nonzero" fill-opacity="1"></path><path clip-path="url(#clip850)" d="M1192.97 19.2219 Q1192.97 19.8367 1192.52 20.7385 Q1192.11 21.5583 1191.25 22.0911 Q1190.43 22.583 1189.53 22.583 Q1189.24 22.583 1188.59 22.4191 Q1187.48 21.9272 1185.76 20.8205 Q1184.04 19.7138 1182.48 19.0169 Q1180.96 18.2791 1179.28 18.1972 Q1177.81 18.1972 1176.58 18.73 Q1175.47 19.3449 1174.73 20.6565 Q1174.4 21.1894 1174.4 22.0911 Q1174.4 23.3618 1175.1 25.0424 Q1175.8 26.7229 1177.23 28.8954 Q1178.71 31.0678 1179.77 32.5434 Q1180.84 33.978 1182.68 36.3554 Q1182.85 36.5604 1182.93 36.6833 Q1183.01 36.7653 1183.13 36.9703 Q1183.26 37.1342 1183.38 37.2572 Q1187.27 42.1349 1188.26 47.5045 Q1188.5 49.39 1188.5 51.3575 Q1188.5 55.2925 1187.31 59.9242 Q1186.29 64.1461 1184.12 67.7942 Q1181.95 71.4012 1178.67 73.7786 Q1175.43 76.156 1171.9 76.156 Q1168.42 76.156 1165.55 74.6394 Q1162.68 73.0818 1160.96 70.4175 Q1158.62 66.8924 1158.62 62.0147 Q1158.62 59.2684 1159.28 56.932 Q1160.18 53.202 1162.31 49.7589 Q1164.44 46.3158 1167.52 43.6515 Q1172.19 39.7165 1177.27 38.6098 Q1174.9 34.101 1173.5 30.6169 Q1172.15 27.0918 1172.15 24.0996 Q1172.15 21.4763 1173.13 19.7957 Q1173.99 17.9922 1175.76 16.9675 Q1177.23 16.0657 1179.36 15.6148 Q1180.67 15.4509 1181.54 15.4509 Q1184.45 15.4509 1191.21 17.0495 Q1192.97 17.4594 1192.97 19.2219 M1182.72 54.7186 Q1182.72 52.2183 1182.31 50.5377 Q1181.54 46.4388 1178.42 40.7823 L1178.17 40.3724 Q1174.2 41.5201 1170.96 45.0042 Q1166.9 49.267 1164.85 57.3419 Q1163.75 61.8507 1163.75 64.3921 Q1163.75 67.1384 1164.77 69.5157 Q1165.75 71.7292 1167.6 72.9998 Q1169.48 74.2705 1171.98 74.2705 Q1173.87 74.2705 1175.51 73.2048 Q1177.15 72.0981 1178.34 70.1716 Q1179.53 68.2451 1180.35 66.1546 Q1181.21 64.0232 1181.86 61.5228 Q1182.72 58.1617 1182.72 54.7186 Z" fill="#000000" fill-rule="nonzero" fill-opacity="1"></path><path clip-path="url(#clip850)" d="M1195.52 95.0111 Q1195.52 94.6012 1195.85 93.6994 L1225.49 14.5081 Q1225.49 14.4262 1225.69 13.9753 Q1225.9 13.5244 1226.02 13.2375 Q1226.14 12.9095 1226.39 12.6636 Q1226.68 12.4177 1227 12.4177 Q1227.82 12.4177 1227.82 13.4424 Q1227.82 13.5244 1227.58 14.5081 L1197.86 93.7814 Q1197.37 95.216 1197.04 95.6259 Q1196.75 96.0358 1196.26 96.0358 Q1195.52 96.0358 1195.52 95.0111 Z" fill="#000000" fill-rule="nonzero" fill-opacity="1"></path><path clip-path="url(#clip850)" d="M1237.09 74.3935 Q1237.09 74.0656 1238.2 71.9341 Q1239.31 69.7617 1243.2 62.0147 Q1247.1 54.2267 1251.11 46.0699 L1265.58 16.9675 Q1266.61 15.123 1267.92 15.123 Q1269.11 15.123 1269.64 15.8608 Q1270.17 16.5986 1272.63 21.5583 Q1273.9 23.9767 1274.64 25.5342 L1298.37 73.0408 Q1298.78 74.0656 1298.82 74.3935 Q1298.82 75.2133 1297.39 75.2133 L1239.31 75.2133 Q1237.09 75.2133 1237.09 74.3935 M1242.63 68.8189 L1287.8 68.8189 L1265.21 23.4848 L1242.63 68.8189 Z" fill="#000000" fill-rule="nonzero" fill-opacity="1"></path><polyline clip-path="url(#clip852)" style="stroke:#009af9; stroke-linecap:round; stroke-linejoin:round; stroke-width:4; stroke-opacity:1; fill:none" points="175.59,1368.15 178.898,1317.79 182.206,1368.8 185.514,1349.52 188.821,1304.33 192.129,1251.24 195.437,1377.86 198.745,1365.55 202.053,1359.54 205.361,1300.07 208.669,1347.45 211.977,1363.65 215.285,1345 218.593,1325.99 221.901,1311.71 225.208,1351.38 228.516,1284.29 231.824,1349.92 235.132,1339.2 238.44,1346.74 241.748,1332.15 245.056,1319.77 248.364,1253.79 251.672,1330.41 254.98,1358.85 258.287,1342.32 261.595,1341.56 264.903,1359.76 268.211,1308.68 271.519,1320.15 274.827,1332.9 278.135,1328.45 281.443,1333.84 284.751,1343.49 288.059,1332.09 291.367,1377.77 294.674,1347.2 297.982,1288.9 301.29,1371.35 304.598,1345.51 307.906,1317.85 311.214,1246.6 314.522,1001.63 317.83,1356.07 321.138,1326.53 324.446,1243.46 327.754,1369.38 331.061,1367.39 334.369,1221.84 337.677,1327.13 340.985,1292.04 344.293,1293.44 347.601,1356.54 350.909,1310.1 354.217,1386.4 357.525,1289.03 360.833,1347.04 364.141,1331.25 367.448,1356.24 370.756,1314.52 374.064,1268.16 377.372,1182.28 380.68,1334.1 383.988,1335.86 387.296,1205.42 390.604,1321.27 393.912,1273.01 397.22,1252.87 400.528,1301.03 403.835,1329.26 407.143,1310.89 410.451,1322.66 413.759,1312.95 417.067,1362.78 420.375,1343.21 423.683,1326.11 426.991,1335.55 430.299,1367.5 433.607,1379.42 436.915,1289.21 440.222,1384.5 443.53,1314.25 446.838,1374.12 450.146,1323.27 453.454,1152.95 456.762,1358.48 460.07,1259.69 463.378,1241.59 466.686,1345.43 469.994,1321.36 473.302,1336.7 476.609,1286.9 479.917,1327.37 483.225,1322.28 486.533,1300.96 489.841,1367.2 493.149,1337.03 496.457,1127.17 499.765,1312.43 503.073,1333.6 506.381,1370.57 509.689,1221.66 512.996,1244.92 516.304,1083.34 519.612,1244.55 522.92,1310.62 526.228,1336.95 529.536,1341.6 532.844,1367.63 536.152,1281.08 539.46,1375.78 542.768,1352.58 546.076,1349.07 549.383,1278.78 552.691,1347.81 555.999,1275.07 559.307,1289.89 562.615,1338.4 565.923,1246.43 569.231,1278.91 572.539,1307.72 575.847,1357.61 579.155,1280.29 582.463,1339.92 585.77,1355.33 589.078,1337.79 592.386,1256.44 595.694,1351.84 599.002,1354.08 602.31,941.151 605.618,1339.93 608.926,1330.38 612.234,1324.79 615.542,1255.63 618.85,1304.01 622.157,1337.67 625.465,1305.22 628.773,1344.29 632.081,1312.01 635.389,1346.14 638.697,1361.68 642.005,1345.22 645.313,1332.35 648.621,1368.48 651.929,1304.07 655.237,1319.88 658.544,1361.26 661.852,1337.66 665.16,1340.28 668.468,1314.13 671.776,1297.99 675.084,1281.7 678.392,1338.92 681.7,1320.77 685.008,1260.48 688.316,1358.06 691.624,1286.22 694.931,1326.65 698.239,1346.03 701.547,1344.04 704.855,1305.34 708.163,1327.83 711.471,1294.41 714.779,1374.43 718.087,1308.63 721.395,1296.85 724.703,1300.4 728.01,1283.12 731.318,1362.89 734.626,1348.57 737.934,1330.72 741.242,1320.31 744.55,1327.05 747.858,1261.56 751.166,1350.72 754.474,1355.85 757.782,1302.36 761.09,1247.14 764.397,1359.3 767.705,1331.05 771.013,1340.28 774.321,1279.23 777.629,1318.39 780.937,1315.73 784.245,1381.47 787.553,1315.34 790.861,1313.37 794.169,1310.16 797.477,1306.99 800.784,1341.25 804.092,1360.42 807.4,1340.22 810.708,1363.78 814.016,1283.41 817.324,1313.99 820.632,1372.27 823.94,1276.03 827.248,1243.7 830.556,1317.22 833.864,1308.04 837.171,1333.6 840.479,1322.95 843.787,1247.62 847.095,1289.37 850.403,1336.41 853.711,1322.59 857.019,1356.34 860.327,1343.27 863.635,1360.07 866.943,1274.92 870.251,1328.11 873.558,1307.4 876.866,1290.01 880.174,1334.13 883.482,1262.17 886.79,1345.48 890.098,1353.06 893.406,1324.98 896.714,1293.44 900.022,1380.19 903.33,1324.5 906.638,1258.64 909.945,1330.83 913.253,1292.13 916.561,1255.81 919.869,1325.29 923.177,1354.25 926.485,1322.33 929.793,1335.38 933.101,1217.75 936.409,1353.41 939.717,1314.56 943.025,1315.51 946.332,1372.56 949.64,1365.12 952.948,1302.81 956.256,1260.84 959.564,1326.65 962.872,1378.08 966.18,1336.34 969.488,1340.79 972.796,1356.14 976.104,1254.48 979.412,1303.32 982.719,1343.47 986.027,1200.56 989.335,1332.75 992.643,1319.33 995.951,1385.05 999.259,1372.07 1002.57,1357.58 1005.87,1185.34 1009.18,1081.45 1012.49,1272.15 1015.8,1314.51 1019.11,1266.95 1022.41,1303.49 1025.72,1346.96 1029.03,1325.12 1032.34,1364.2 1035.65,1313.81 1038.95,1379.43 1042.26,1159.21 1045.57,1321.75 1048.88,1230.7 1052.19,160.256 1055.49,1363.28 1058.8,1261.58 1062.11,1366.43 1065.42,1324.93 1068.73,1272.6 1072.03,1344.97 1075.34,1370.84 1078.65,1299.22 1081.96,1299.35 1085.26,1359.69 1088.57,1338.75 1091.88,1350.35 1095.19,1328.87 1098.5,1366.89 1101.8,1374.55 1105.11,1376.89 1108.42,1362.47 1111.73,1243.03 1115.04,1369.6 1118.34,1355.28 1121.65,1337.2 1124.96,1352.3 1128.27,1332.99 1131.58,1337.39 1134.88,1283.49 1138.19,1321.37 1141.5,1266.2 1144.81,1333.09 1148.11,1345.41 1151.42,1379.69 1154.73,1320.44 1158.04,1338.18 1161.35,1363.07 1164.65,1317.92 1167.96,1351.65 1171.27,1372.49 1174.58,1357.66 1177.89,1296.66 1181.19,1248.24 1184.5,1342.4 1187.81,1355.81 1191.12,1339.2 1194.43,1342.56 1197.73,1299.84 1201.04,1377.93 1204.35,1322.39 1207.66,1334.59 1210.97,1383.13 1214.27,1164.69 1217.58,1362.74 1220.89,1349.57 1224.2,1356.03 1227.5,1305.41 1230.81,1295.73 1234.12,1351.18 1237.43,1322.75 1240.74,1272.03 1244.04,1356.01 1247.35,1345.25 1250.66,1346.46 1253.97,1310.36 1257.28,1356.58 1260.58,1328.98 1263.89,1357.67 1267.2,1349.01 1270.51,1265.49 1273.82,1355.02 1277.12,1340.49 1280.43,1358.94 1283.74,1303.57 1287.05,1344.2 1290.35,1345.61 1293.66,1303.14 1296.97,1213.89 1300.28,1298.27 1303.59,1228.79 1306.89,1313.69 1310.2,1373.29 1313.51,1301.34 1316.82,1317.17 1320.13,1340.37 1323.43,1186.44 1326.74,1353.6 1330.05,1341.11 1333.36,1303.06 1336.67,1054.57 1339.97,1343.91 1343.28,1295.6 1346.59,1325.89 1349.9,1281.27 1353.21,1315.08 1356.51,1336.36 1359.82,1325.57 1363.13,1327.97 1366.44,1304.14 1369.74,1368.28 1373.05,1356.93 1376.36,1346.36 1379.67,1317.64 1382.98,1151.24 1386.28,1315.57 1389.59,1322.04 1392.9,1312.12 1396.21,1291.92 1399.52,1308.8 1402.82,1358.74 1406.13,1367.04 1409.44,1356.97 1412.75,1369.29 1416.06,1173.22 1419.36,1342.27 1422.67,1322.2 1425.98,1346.88 1429.29,1231.54 1432.6,1312.05 1435.9,1326.29 1439.21,1341.84 1442.52,1343.09 1445.83,1312.11 1449.13,1273.86 1452.44,1338.03 1455.75,1284.67 1459.06,1283.83 1462.37,1257.44 1465.67,1311.03 1468.98,1247.37 1472.29,1305.18 1475.6,1294.99 1478.91,1328.33 1482.21,1197.4 1485.52,1360.26 1488.83,1190.18 1492.14,1315.78 1495.45,1299.92 1498.75,1233.66 1502.06,1368.48 1505.37,1319.51 1508.68,1271.9 1511.98,1306.52 1515.29,1335.59 1518.6,1310.36 1521.91,1363.16 1525.22,1379.72 1528.52,1315.04 1531.83,1334.69 1535.14,1144.16 1538.45,1309.81 1541.76,1240.21 1545.06,1298.46 1548.37,1309.64 1551.68,1357.39 1554.99,1337.32 1558.3,1359.6 1561.6,1325.44 1564.91,1300.91 1568.22,1381.44 1571.53,1252.52 1574.84,1260.4 1578.14,1293.4 1581.45,1244.07 1584.76,1334.33 1588.07,1305.88 1591.37,1265.21 1594.68,1378.25 1597.99,1330.13 1601.3,1385.49 1604.61,1331.47 1607.91,1354.34 1611.22,1302.4 1614.53,1335.24 1617.84,1352.54 1621.15,1322.88 1624.45,1367.96 1627.76,1363.29 1631.07,1324.84 1634.38,1333.5 1637.69,1272.85 1640.99,1374.87 1644.3,1363.73 1647.61,1319.33 1650.92,1255.33 1654.22,1333.6 1657.53,1172.17 1660.84,1147.99 1664.15,1350.97 1667.46,1370.55 1670.76,1267.76 1674.07,1241.97 1677.38,1286.77 1680.69,1374.85 1684,1339.73 1687.3,1166.3 1690.61,1352.25 1693.92,1335.16 1697.23,1298.11 1700.54,1159.69 1703.84,1353.79 1707.15,1342.87 1710.46,997.626 1713.77,1321.29 1717.08,1282.25 1720.38,1236.76 1723.69,1281.47 1727,1326.95 1730.31,1238.18 1733.61,1259.59 1736.92,1337.76 1740.23,1359.63 1743.54,1297.32 1746.85,1327.04 1750.15,1288.07 1753.46,1345.82 1756.77,1327.56 1760.08,1240.79 1763.39,1329.62 1766.69,1332.59 1770,1382.73 1773.31,1324.15 1776.62,1360.53 1779.93,1330.94 1783.23,1292.22 1786.54,1322.53 1789.85,1371.97 1793.16,1314.05 1796.46,1303.32 1799.77,1296.01 1803.08,1334.9 1806.39,1329.72 1809.7,1275.97 1813,1348.45 1816.31,1341.68 1819.62,1346.41 1822.93,1329.62 1826.24,1354.85 1829.54,1319.19 1832.85,1362.85 1836.16,1319.97 1839.47,1348.68 1842.78,1285.41 1846.08,1293.75 1849.39,1334.25 1852.7,1317.66 1856.01,1327.22 1859.32,1320.97 1862.62,1274.53 1865.93,1276.14 1869.24,1359.56 1872.55,1376.73 1875.85,1322.57 1879.16,1307.68 1882.47,1294.33 1885.78,1368.7 1889.09,1228.28 1892.39,1356.25 1895.7,1362.57 1899.01,1288.53 1902.32,1277.3 1905.63,1346.49 1908.93,1290.64 1912.24,1340.1 1915.55,1291.86 1918.86,1311.63 1922.17,1048.98 1925.47,1290.08 1928.78,1280.51 1932.09,1321.07 1935.4,1243.87 1938.71,1321.97 1942.01,1213.05 1945.32,1340.04 1948.63,1249.43 1951.94,1194.9 1955.24,1295.41 1958.55,1294.36 1961.86,1346.21 1965.17,1339.28 1968.48,1214.39 1971.78,1328.06 1975.09,1323.63 1978.4,1286.6 1981.71,1351.51 1985.02,1345.2 1988.32,1280.86 1991.63,1365.11 1994.94,1361.28 1998.25,1385.37 2001.56,1364.43 2004.86,1262.86 2008.17,1307.93 2011.48,1304.5 2014.79,1358.53 2018.09,1320.39 2021.4,1284.06 2024.71,1361.35 2028.02,1286.58 2031.33,1359.85 2034.63,1351.97 2037.94,1082.85 2041.25,1336.45 2044.56,1320.43 2047.87,1216.51 2051.17,1302.6 2054.48,1372.94 2057.79,1240.26 2061.1,1290.32 2064.41,1318.31 2067.71,1301.47 2071.02,1317.07 2074.33,1332.31 2077.64,1352.54 2080.95,1343.67 2084.25,1323.26 2087.56,1377.96 2090.87,1292.7 2094.18,1328.82 2097.48,1271.32 2100.79,1203.62 2104.1,1346.22 2107.41,1339.3 2110.72,1230.53 2114.02,1271.65 2117.33,1336.06 2120.64,1359.08 2123.95,1088.97 2127.26,1380.13 2130.56,1336.63 2133.87,1268.54 2137.18,1368.49 2140.49,1347.31 2143.8,1070.91 2147.1,1357.21 2150.41,1352.29 2153.72,1350.1 2157.03,1324.04 2160.33,1079.99 2163.64,1353.35 2166.95,1368.51 2170.26,1321.71 2173.57,1328.35 2176.87,1348.51 2180.18,1336.96 2183.49,1303.63 2186.8,1348.52 2190.11,1364.84 2193.41,1366.27 2196.72,1286.55 2200.03,1322.17 2203.34,1322.35 2206.65,1369.97 2209.95,1329.08 2213.26,1274.25 2216.57,1321.75 2219.88,1327.41 2223.19,1245.2 2226.49,1335.17 2229.8,1371.2 2233.11,1360.63 2236.42,1335.25 2239.72,1269.28 2243.03,1290.46 2246.34,1292.8 2249.65,902.519 2252.96,1282.76 2256.26,1327.97 2259.57,1361.08 2262.88,1261.03 2266.19,1344.53 2269.5,1381.66 2272.8,1365.12 2276.11,1317.42 2279.42,1343.38 2282.73,1314.01 2286.04,1357.73 2289.34,1357.81 "></polyline>
<path clip-path="url(#clip850)" d="M2001.58 270.476 L2278.07 270.476 L2278.07 166.796 L2001.58 166.796  Z" fill="#ffffff" fill-rule="evenodd" fill-opacity="1"></path>
<polyline clip-path="url(#clip850)" style="stroke:#000000; stroke-linecap:round; stroke-linejoin:round; stroke-width:4; stroke-opacity:1; fill:none" points="2001.58,270.476 2278.07,270.476 2278.07,166.796 2001.58,166.796 2001.58,270.476 "></polyline>
<polyline clip-path="url(#clip850)" style="stroke:#009af9; stroke-linecap:round; stroke-linejoin:round; stroke-width:4; stroke-opacity:1; fill:none" points="2026.48,218.636 2175.85,218.636 "></polyline>
<path clip-path="url(#clip850)" d="M2214.59 238.323 Q2212.78 242.953 2211.07 244.365 Q2209.36 245.777 2206.49 245.777 L2203.08 245.777 L2203.08 242.212 L2205.58 242.212 Q2207.34 242.212 2208.31 241.379 Q2209.29 240.545 2210.47 237.443 L2211.23 235.499 L2200.74 209.99 L2205.26 209.99 L2213.36 230.268 L2221.46 209.99 L2225.98 209.99 L2214.59 238.323 Z" fill="#000000" fill-rule="nonzero" fill-opacity="1"></path><path clip-path="url(#clip850)" d="M2233.27 231.981 L2240.91 231.981 L2240.91 205.615 L2232.6 207.282 L2232.6 203.022 L2240.86 201.356 L2245.54 201.356 L2245.54 231.981 L2253.17 231.981 L2253.17 235.916 L2233.27 235.916 L2233.27 231.981 Z" fill="#000000" fill-rule="nonzero" fill-opacity="1"></path></svg>